<svg id="Bold" xmlns="http://www.w3.org/2000/svg" viewBox="0 0 512 512"><defs><style>.cls-1{fill:#f5f6fa;}</style></defs><path class="cls-1" d="M2.05,239.85c5.69,16.58,21.82,27.44,38.4,28.12,7.78,1.15,13.72-1.84,66-19.2L141,351.64,89.15,368.9c-21.72,7.1-33.26,30.74-26.28,52.48,5.7,16.57,21.82,27.43,38.4,28.11,7.79,1.16,13.72-1.83,66-19.22L185.17,484c6.77,19.31,28.23,33.13,52.57,26.15C259.56,503,271,479.51,264,457.66L246.08,404l107-35.78L371,421.89c6.76,19.3,28.22,33.13,52.56,26.15,21.83-7.1,33.26-30.63,26.28-52.48l-17.94-53.71,51.89-17.26c21.71-6.85,33.25-30.53,26.15-52.23l0,0c-7.1-21.72-30.74-33.26-52.57-26.15l-51.88,17.26L370.84,160.58l51.88-17.26C444.54,136.21,456,112.68,449,90.84s-30.74-33.26-52.56-26.16L344.53,82,326.59,28.25C319.49,6.53,295.85-5,274,2.09s-33.26,30.64-26.29,52.48l17.95,53.72L158.93,143.94,141,90.22C133.89,68.48,110.25,57,88.43,64S55.17,94.68,62.14,116.52l18,53.72L28.33,187.37C6.51,194.47-4.93,218,2.05,239.85Zm289.66-52.37,34.63,103.1L219.48,326.36,184.85,223.27Z"/></svg>