<svg id="Bold" xmlns="http://www.w3.org/2000/svg" viewBox="0 0 512 512"><defs><style>.cls-1{fill:#f5f6fa;}</style></defs><path class="cls-1" d="M256,0C114.63,0,0,117.51,0,262.48c0,116,73.35,214.36,175.07,249.07,12.79,2.43,17.49-5.69,17.49-12.63,0-6.26-.24-26.93-.35-48.87-71.22,15.88-86.24-31-86.24-31-11.65-30.34-28.43-38.4-28.43-38.4-23.23-16.29,1.75-16,1.75-16,25.71,1.85,39.24,27,39.24,27,22.84,40.13,59.89,28.53,74.5,21.82,2.3-17,8.93-28.54,16.26-35.1-56.87-6.64-116.64-29.14-116.64-129.72,0-28.65,10-52.07,26.38-70.45-2.66-6.61-11.42-33.31,2.48-69.46,0,0,21.49-7.06,70.42,26.9a237.08,237.08,0,0,1,128.2,0c48.87-34,70.33-26.9,70.33-26.9,13.94,36.15,5.17,62.85,2.51,69.46,16.42,18.38,26.35,41.8,26.35,70.45,0,100.82-59.89,123-116.89,129.51,9.18,8.15,17.36,24.12,17.36,48.61,0,35.12-.3,63.39-.3,72,0,7,4.61,15.17,17.59,12.59C438.74,476.77,512,378.41,512,262.48,512,117.51,397.38,0,256,0Z"/></svg>