<svg id="Bold" xmlns="http://www.w3.org/2000/svg" viewBox="0 0 512 512"><defs><style>.cls-1{fill:#f5f6fa;}</style></defs><path class="cls-1" d="M359.29,165.49H152.71L256,254Z"/><path class="cls-1" d="M256,275.2a9.15,9.15,0,0,1-5.95-2.2L137.14,176.22V348.35H374.86V176.22L262,273A9.15,9.15,0,0,1,256,275.2Z"/><path class="cls-1" d="M256,.92C114.62.92,0,115.53,0,256.92s114.62,256,256,256,256-114.62,256-256C511.84,115.6,397.32,1.08,256,.92ZM393.14,357.49a9.14,9.14,0,0,1-9.14,9.14H128a9.14,9.14,0,0,1-9.14-9.14V156.35A9.15,9.15,0,0,1,128,147.2H384a9.15,9.15,0,0,1,9.14,9.15Z"/></svg>