<?xml version="1.0" standalone="no"?>
<svg
  width="600"
  height="600"
  viewBox="0 0 600 600"
  xmlns="http://www.w3.org/2000/svg"
>
  <g transform="translate(300,300)">
    <path d="M140.3,-164.5C184.6,-130,225.3,-88.5,243.6,-35.4C261.8,17.6,257.8,82,227.7,128.8C197.6,175.7,141.4,204.8,86.4,215.3C31.4,225.8,-22.5,217.7,-71.3,198.7C-120.1,179.7,-164,149.9,-193.1,107.5C-222.3,65.2,-236.7,10.5,-232.6,-45.9C-228.5,-102.3,-205.8,-160.3,-164,-195.3C-122.1,-230.2,-61.1,-242.1,-6.5,-234.3C48,-226.5,96,-199.1,140.3,-164.5Z" fill="#FFB4BC" />
  </g>
</svg>
  