<?xml version="1.0" encoding="utf-8"?>
<!-- Generator: Adobe Illustrator 25.2.0, SVG Export Plug-In . SVG Version: 6.00 Build 0)  -->
<svg version="1.1" id="Layer_1" xmlns="http://www.w3.org/2000/svg" xmlns:xlink="http://www.w3.org/1999/xlink" x="0px" y="0px"
	 viewBox="0 0 1170 780" style="enable-background:new 0 0 1170 780;" xml:space="preserve">
<style type="text/css">
	.st0{fill-rule:evenodd;clip-rule:evenodd;fill:#C7FFD8;}
	.st1{fill-rule:evenodd;clip-rule:evenodd;fill:#8447FF;}
</style>
<path class="st0" d="M804.2,616.8c-4.1-1.6-7.4-4.5-10.9-7c0.1,2.2,0.8,4.6,2.8,5.9c4.6,3,10.5,2.7,15.7,3.4
	c4.2,0.4,8.2,2.3,12.4,2.9c-2.4-1.4-4.7-3.1-7.4-4C812.6,617.4,808.1,618.6,804.2,616.8L804.2,616.8 M727.4,691.9
	c1.2-1.2,2.1-2.6,2.9-4.1C728.9,688.9,728,690.3,727.4,691.9L727.4,691.9 M734.9,643.5c3,1,5.7,2.8,8.6,4.1c-2.8-3-6.3-5.2-10.2-6.4
	c-3-0.9-5.5,1-7.6,2.7C728.7,643.5,731.8,642.9,734.9,643.5L734.9,643.5 M734.1,687.7c-0.5,1-1,2.1-1.5,3.1c6.3-2,13-1.2,19.5-2
	c0.1-0.5,0.3-1.4,0.4-1.9C746.4,684.4,740.2,687.3,734.1,687.7L734.1,687.7 M755.5,681.5c-6.3-4.1-13.3-7.6-20.7-9.1
	C738.4,679.9,748.2,680.3,755.5,681.5L755.5,681.5 M757.7,639.2c-4.7,2.4-5.6,10.1-0.8,13c0.7-2.9-0.5-6.6,1.6-9
	c4.8-3.5,10.8-5.1,16.5-6.5c3.7-1.4,6.9,1.9,10.5,1.4c3.7-1.3,3-6.1,3.2-9c-0.8,2.8-1.5,5.6-2.5,8.3
	C776.9,633.3,766.4,634.7,757.7,639.2L757.7,639.2 M729.9,669.1c-1.9,0.1-3.9,0.3-5.9,0.6C726,669.6,727.9,669.4,729.9,669.1
	L729.9,669.1 M408,620.5c-1.2-2-0.7-4.5-0.9-6.7c-1,1.9-2.9,4.2-1.4,6.3c1.8,2.8,4.9,4.4,7.9,5.6C411.6,624.1,409.6,622.5,408,620.5
	L408,620.5 M411.8,626.5c-5,0.8-9.8,3.1-13.3,6.7c-2.5,5,2.7,9.1,7,10.2c-1.2-3.1-4.8-5.2-4.8-8.6
	C403.7,631.2,408,629.1,411.8,626.5L411.8,626.5 M340.5,643.2c-0.1,0.8-0.3,1.6-0.4,2.4c0.9,0,1.9,0,2.8,0c-0.1-0.8-0.3-1.6-0.4-2.4
	C341.8,643.2,341.2,643.2,340.5,643.2L340.5,643.2 M723.5,626.2c2.7-3.3,4.9-7,6.7-10.9C727.3,618.5,725,622.1,723.5,626.2
	L723.5,626.2 M357.6,651.3c0.1-1.8,0-3.6-0.1-5.5C356.8,647.6,357,649.5,357.6,651.3L357.6,651.3 M382.3,649.9
	c6.4-4.3,14.5-2.2,21.7-2.6C397.1,645.5,387.3,643.1,382.3,649.9L382.3,649.9 M369.6,646.4c-1.4-1.9-4.2-1.2-6.2-1.4
	c-0.1,0.7-0.1,1.5-0.2,2.3c3.1,1.2,5.6,3.5,8,5.7C370.7,650.8,371,648.3,369.6,646.4L369.6,646.4 M378.3,650.2
	c-4.8,5.6-9.4,11.8-11.9,18.8C371.1,663.2,374.5,656.5,378.3,650.2L378.3,650.2 M882.2,648.3c-11.1-14.4-25-26.2-38.9-37.7
	c-15.7-12.1-31.6-24-48.9-33.8c-11.5-6.6-23.9-11.4-35.6-17.6c9.4-2.9,15.6-10.8,23.8-15.6c5.6-3.5,13.3-2.5,18-7.6
	c3.8-4.3,7.9-8.4,12.8-11.5c9.2-6,17.8-13.4,23.8-22.7c3-6.1,3.3-13.2,6.2-19.4c3.1-7.2,2.6-15.3,1.6-22.8
	c-3.8-9.2-11-16.4-17.2-24.1c-2.3-3.5-6.4-4.8-9.9-6.6c-4.2-2-6.9-6.2-11-8.5c-3.6-1.1-7.5-1.2-11-2.6c1.5-9.3,1.8-18.9,0-28.2
	c0.7,0.3,1.4,0.7,2.1,1.1c-5.2-11.3-7.1-23.6-8.3-35.9c-0.3-5.6-3-10.5-4.4-15.8c-0.6-4-3.9-6.5-6.2-9.5c-2.8-3.2-2.4-7.8-4.5-11.3
	c-6.9-11.1-16.4-20.2-25.8-29.2c-3.7-4.4-1.6-10.8-3.8-15.8c-1.9-1.9-4.8-2.5-6.5-4.7c-6.1-7.4-15-11.5-23-16.4
	c-2.2-2.7-1.2-6.5-1.3-9.6c0.8-10.6,1.8-21.5-0.9-31.9c-1.9-6.2,1.3-15-5.7-18.4c-6.5-2.2-13.4-2.6-20-4.6c-1.5-0.5-2.4-2.1-2.1-3.6
	c1-11,1.9-22.5-1.6-33.2c-4.1-5.8-10.7-9.6-14-16.2c-3-6-6.5-11.8-8.8-18.1c-1.7-4.8-4.4-9.4-8.3-12.6c-6.2-4.8-9.8-12-16.1-16.7
	c-3.7-3-7.1-6.3-11-9.1c-10.7-4.7-21.5-10.1-33.3-10.7c-7,0-14.1-0.5-21,0.8c-8.8,1.4-16.9,5.3-25,8.9c-4.3,1.5-7,5.3-10.6,7.8
	c-7.5,5.6-12.3,13.9-19.7,19.6c-4.8,4.4-6.7,10.6-9.2,16.4c-2.7,5.2-5.1,10.5-8.1,15.5c-3.5,6.3-11.1,9.5-13.6,16.5
	c-3.3,11-1,22.7-1.4,33.9c-4.4,2.2-9.6,2.2-14.3,3.5c-3.9,1-9.6,1.1-11.2,5.8c-1.6,6.2-1.4,12.7-2.7,19c-2.4,10.7,0.5,21.5,0.4,32.3
	c-0.2,2.3-1.3,4.7-3.4,5.8c-7.2,3.9-14.5,8-20.3,13.9c-2.1,2.4-5.2,3.5-7.3,5.8c-3,4.9,0.2,11.9-4.1,16.2c-8.9,8.8-17.8,17.7-25,28
	c-2.9,4.7-2.5,11-6.9,14.8c-4.6,4.5-5.3,11-7.5,16.7c-1.8,4.5-1.3,9.5-2.2,14.2c-1,5.6-1.4,11.3-2.8,16.9c-1.2,3.9-3.2,7.4-4.5,11.3
	c0.9-0.7,1.7-1.4,2.6-2.1c-3.3,9.2-1.3,19.1-0.9,28.6c-3.3,3-8.4,1.5-12.2,3.6c-3.2,2.3-5.6,5.8-9.2,7.6c-2.9,1.6-6.4,2.6-8.5,5.4
	c-6.1,6.9-12.1,13.9-16.9,21.8c-3.7,5.6-1.8,12.7-1.9,18.9c-0.1,5.1,3,9.3,4.1,14.1c1.2,5.8,2.3,12,6.3,16.7
	c6.8,8.3,15.1,15.3,24.1,21.1c6,3.9,9.5,11.3,16.8,13.3c6.7,1.7,13.5,4.1,18.6,9c4.8,4.6,10.6,7.9,16.6,10.7
	c-11.4,4.9-22.5,10.4-33.5,16.1c-15.4,8.1-29.3,18.5-43.2,28.9c-11.5,8.5-22.4,17.7-32.4,27.9c-8.1,8-16.6,16.3-20.8,27.1
	c10.9-9.7,19.9-21.4,32.2-29.5c15.1-11.4,31.5-21,48.7-28.8c1.1,0.9,2,2.8,3.7,2.4c8.6-1.8,16.9-5.2,25.7-6.3
	c6.8-0.7,13.6-2.3,20.4-1.5c6.3,3.2,9.5,10.5,16.2,13.2c5.2,2.8,11.4,2,16.8,0.3c5.3-1.8,10.9,0.2,16,1.8
	c10.3,3.3,21.1,5.5,30.8,10.4c4.7,2.3,9.6,5.1,15,5c5.7-0.8,11.2-3.7,17.1-3c12.6-0.1,21.8,10.5,34.1,11.7c12.1,0,24.1-2.1,36-3.8
	c15.8-2.2,32.1,1.5,47.6-2.9c10.8-2.8,22-2.4,32.9-4.5c1.9-0.7,4.9-1.2,5.1-3.7c-1.4-2.9-4.7-3.8-7.2-5.4c5.5-2.5,11.4-3.7,16.9-6.1
	c3.4-1.4,5.2-4.7,7.3-7.4c5.5,0.6,11.1,1.3,16.3,3.4c8,2.7,15.8,7.7,24.7,5.8c7.7-1.6,12.5-8.4,17.8-13.6c4.7,1,8.7,3.7,12.5,6.5
	c-9.7,2.6-19.5,6.2-27.1,12.9c-3,2.7-4,6.6-3.8,10.4c-0.3-0.1-1-0.4-1.3-0.5c-0.1-2-0.3-4.2-0.3-6.1c-2.6,2.2-3.4,5.6-4.1,8.9
	c1.8,0.8,3.7,1.5,5.6,2.3c-2.7-0.4-5.4-0.9-8.1-1.4c1.7-4,3.8-7.9,4.9-12.2c-3.5,2.8-4.7,7.3-5.7,11.4c-2.8-0.9-5.6-1.7-8.3-2.6
	c1.1-3.2,2.5-6.3,3.4-9.6c-2.9,2.9-4.4,6.8-6.9,10.1c8,2.2,15.6,5.9,23.9,6.5c9-0.5,17.9-2.9,26.3-6.1c6.1-2.6,12-7.6,13.2-14.5
	c1.2-5.7-1.6-11-4-16c10.3,0.6,19.7,5,29.8,6.4c0.6-0.8,1.2-1.6,1.9-2.3c4.1,1,7.7,3.2,11.5,5.1c10.3,5.7,20.6,11.4,30.1,18.3
	c7.7,5.8,16.2,10.7,22.8,17.9c5.4,6,10.9,11.9,17.1,17.2C886.7,655.8,885,651.6,882.2,648.3L882.2,648.3 M399.4,621.6
	c2.4-4.9-1.1-10.9-6.3-11.8c-8.1-0.9-16,1.1-24,1.9c-10,2.8-20.7,7.8-24.5,18.3c2.8-2.7,5.4-5.6,8.2-8.3c1.8,1.6,3.5,3.3,5.3,5
	c-1.1-2.1-2.3-4.2-3.6-6.2c2.4-1.3,4.8-2.5,7.2-3.7c0.1,1.9,0.4,5.7,0.5,7.6c0.6-2.8,1-5.6,1.4-8.5c1.7-0.4,3.4-0.8,5-1.1
	c-0.7,2.5-0.6,5.4-1.9,7.7c-1.3,1.6-3.2,2.5-4.9,3.7c-4.8,2.5-6.6,8.1-10.8,11.2c9.1,2.1,18.6,1.1,27.3-1.9
	C386.3,632.6,394.8,629,399.4,621.6L399.4,621.6 M515.1,668.7c-4.5-0.3-9.8,0.2-12.6,4.2c-2,2.2-0.8,5.5,1,7.4c-0.4-1.7-1-3.3-1-5
	c0.7-3.5,4.7-5.1,7.8-5.1c8.8-0.7,17.2,2.7,25.9,2.9c6.4,0.7,12.5-2.1,17.9-5.2c-4.7,0.6-8.9,3.1-13.4,4.5
	C532,673,523.6,669.8,515.1,668.7L515.1,668.7 M686.3,700.9c1.8-3.4,4.9-5.7,8.6-6.8c-2,0.2-4,0.5-6,0.7
	C687.9,696.8,687.1,698.9,686.3,700.9L686.3,700.9 M698.7,712.7c2.1-2.4,3.9-5,6.2-7.2c3.6-2.7,8.2-3.5,12.4-4.8
	c-3.6,0.4-7.4,0.7-10.7,2.6C702.5,705,700.6,709.1,698.7,712.7L698.7,712.7 M684.7,680.8c1.6-3,3.1-6.4,6.8-7.3
	c-0.7-0.2-1.5-0.4-2.2-0.5c-3.1-0.9-4.4,3.3-6.3,4.8c-6.4,7.1-16.6,7.3-24.5,11.8c7.5,0.1,14.9-1.5,21.8-4.3
	c0,5.3,0.9,10.5,1.3,15.8c0.1-5.2-0.6-10.4,0.2-15.5c1.4-2,3.8-3.2,5.8-4.6C686.5,680.9,685.6,680.8,684.7,680.8L684.7,680.8
	 M723.3,693.2c1.6-1,2.8-2.4,3.7-4C725.5,690.2,724.2,691.6,723.3,693.2L723.3,693.2 M717.3,692.7c-1.4,0.5-2.7,1.2-4,2.1
	C714.7,694.2,716,693.5,717.3,692.7L717.3,692.7 M554.3,639.2c-7.5-4.1-16.6-5-25-4.6c3.7,1.7,7.5,3.2,11.4,4.4c-1.5,2-3.1,4-4.6,6
	c-13.3-4-27.5-4.8-41.3-3.5c-5.7,0.7-10.8,3.4-15.7,6.2c-0.3-2.1-0.5-4.3-0.7-6.4c2.8-2.4,5.8-4.7,8.2-7.5c-5.9,0.9-11,4.7-14.3,9.5
	c-1.6,3.3,0.5,7.2,3.6,8.7c7.5,5.9,17.9,6.5,26.8,3.9c5.7-2.2,11.5,0.5,17.2,1.2c8.8,0.5,17.7-0.7,25.9-4c3.8-1.8,8.1-3.9,9.7-8
	C556,643.2,556.5,640.4,554.3,639.2L554.3,639.2 M567.6,654.8c-2.8-3.5-1.6-8.1-1.7-12.2c-1.5,2.9-4,6.2-2.3,9.6
	c1.2,4.9,6.6,6.6,9.5,10.2c1.2,2.6,1.1,5.7,1.9,8.5c0.1-2.8,0.5-5.7,0-8.4C573.3,659.3,569.6,657.8,567.6,654.8L567.6,654.8
	 M460,640.6c-2.7,3.9-3.3,8.7-6,12.6c-6.3,3.9-13.7,5.5-19.7,10c7.2-1.7,14.6-4,20.7-8.2C458.3,651,459.4,645.6,460,640.6L460,640.6
	 M464.3,659.5c2,4.4,7,5.2,11.1,6.4c5.6,2.4,8.5,7.9,11.1,13c1.2,2.6,4.5,2.9,6.9,3.3c-2.7-3.6-4.1-7.9-6.5-11.6
	C480.8,664.4,471.3,664.3,464.3,659.5L464.3,659.5 M732.1,671.6c-0.8,2.3-1.6,4.5-2.4,6.8c-1.7-2-3.5-4.9-6.8-3.9
	c-9.3,0.9-19.5,4.2-25.4,12c-1.3,2-4,0.8-5.9,0.3c-1.2-1.9,0.2-4,1.3-5.6c4.7-5.5,11.6-8.3,18.4-10.1c-8.9,0.3-18.7,4.7-22.4,13.3
	c-1.4,2.9,1.4,5.7,4.1,6.3c11.7,3.4,24.2-0.4,34.3-6.5C731.3,681.6,735,676.3,732.1,671.6L732.1,671.6 M454,666.8
	c-5.2-0.9-11.5-0.7-14.7,4.1c3.8-2,8-4.1,12.4-3.3c5.4,0.4,9,4.7,13.2,7.5C461.9,671.7,458.6,668.1,454,666.8L454,666.8
	 M351.8,648.6c2.1-0.9,3.9-2.3,5-4.4C354.2,644.4,352.7,646.4,351.8,648.6L351.8,648.6 M339.9,630.6c-2.5,4.3-3.4,9.8-8.2,12.5
	c-5.4,5.2-13.5,1.4-19.5,4.9c3.7,0,7.4-0.4,11.1-0.9c-0.9,0.9-1.8,1.8-2.7,2.7c5.2-1.3,10.6-2.8,14.9-6.2
	C339.3,640.4,341.1,635.3,339.9,630.6L339.9,630.6"/>
<path class="st1" d="M706.5,703.3c3.2-1.9,7.1-2.2,10.7-2.6c-4.2,1.3-8.8,2.1-12.4,4.8c-2.3,2.2-4.1,4.8-6.2,7.2
	C700.6,709.1,702.5,705,706.5,703.3L706.5,703.3 M688.8,694.8c2-0.2,4-0.5,6-0.7c-3.6,1.1-6.7,3.4-8.6,6.8
	C687.1,698.9,687.9,696.8,688.8,694.8 M713.3,694.8c1.2-0.9,2.6-1.5,4-2.1C716,693.5,714.7,694.2,713.3,694.8 M723.3,693.2
	c0.9-1.6,2.2-3,3.7-4C726.1,690.8,724.9,692.2,723.3,693.2 M727.4,691.9c0.6-1.6,1.5-3,2.9-4.1C729.5,689.3,728.5,690.7,727.4,691.9
	 M734.1,687.7c6.2-0.4,12.3-3.2,18.4-0.8c-0.1,0.5-0.3,1.4-0.4,1.9c-6.5,0.8-13.2,0-19.5,2C733.1,689.7,733.6,688.7,734.1,687.7
	 M734.8,672.4c7.4,1.4,14.4,4.9,20.7,9.1C748.2,680.3,738.4,679.9,734.8,672.4 M682.9,677.7c1.9-1.5,3.2-5.7,6.3-4.8
	c0.7,0.1,1.5,0.3,2.2,0.5c-3.7,0.9-5.2,4.3-6.8,7.3c0.9,0.1,1.8,0.2,2.8,0.3c-2.1,1.3-4.4,2.5-5.8,4.6c-0.8,5.1-0.1,10.3-0.2,15.5
	c-0.4-5.3-1.3-10.5-1.3-15.8c-6.9,2.8-14.3,4.4-21.8,4.3C666.2,685,676.5,684.8,682.9,677.7 M688.9,684.4c3.7-8.6,13.5-13,22.4-13.3
	c-6.8,1.8-13.7,4.6-18.4,10.1c-1.1,1.5-2.5,3.7-1.3,5.6c1.8,0.5,4.6,1.6,5.9-0.3c5.9-7.8,16.1-11.1,25.4-12c3.3-1,5,1.9,6.8,3.9
	c0.8-2.3,1.6-4.5,2.4-6.8c2.9,4.7-0.8,10-4.7,12.5c-10.1,6.1-22.6,10-34.3,6.5C690.2,690.1,687.5,687.3,688.9,684.4 M724,669.7
	c1.9-0.3,3.9-0.5,5.9-0.6C727.9,669.4,726,669.6,724,669.7 M540.7,672.4c4.5-1.4,8.7-3.9,13.4-4.5c-5.4,3.2-11.5,5.9-17.9,5.2
	c-8.7-0.2-17.1-3.6-25.9-2.9c-3.2,0-7.2,1.7-7.8,5.1c0,1.7,0.6,3.3,1,5c-1.8-1.9-3-5.2-1-7.4c2.8-3.9,8.2-4.5,12.6-4.2
	C523.6,669.8,532,673,540.7,672.4 M439.4,670.9c3.2-4.7,9.5-5,14.7-4.1c4.5,1.3,7.9,4.9,10.9,8.3c-4.1-2.9-7.8-7.2-13.2-7.5
	C447.4,666.8,443.1,668.9,439.4,670.9 M464.3,659.5c7,4.8,16.5,4.8,22.6,11.1c2.4,3.7,3.8,8,6.5,11.6c-2.4-0.5-5.7-0.7-6.9-3.3
	c-2.7-5.1-5.6-10.6-11.1-13C471.3,664.7,466.2,663.9,464.3,659.5 M366.4,669c2.4-7,7-13.2,11.9-18.8
	C374.5,656.5,371.1,663.2,366.4,669 M357.6,651.3c-0.6-1.8-0.8-3.7-0.1-5.5C357.6,647.6,357.7,649.4,357.6,651.3 M382.3,649.9
	c4.9-6.9,14.7-4.5,21.7-2.6C396.8,647.7,388.8,645.6,382.3,649.9 M363.4,645c2,0.2,4.8-0.5,6.2,1.4c1.4,1.9,1.1,4.4,1.6,6.6
	c-2.4-2.3-4.9-4.5-8-5.7C363.3,646.5,363.3,645.7,363.4,645 M351.8,648.6c0.8-2.3,2.4-4.2,5-4.4
	C355.7,646.3,353.9,647.7,351.8,648.6 M563.7,652.2c-1.7-3.4,0.8-6.6,2.3-9.6c0.1,4.1-1.2,8.7,1.7,12.2c1.9,3.1,5.6,4.5,7.4,7.7
	c0.5,2.7,0.1,5.6,0,8.4c-0.8-2.8-0.6-5.9-1.9-8.5C570.2,658.8,564.8,657,563.7,652.2 M340.5,643.2c0.7,0,1.3,0,2,0
	c0.1,0.8,0.3,1.6,0.4,2.4c-0.9,0-1.9,0-2.8,0C340.2,644.8,340.4,644,340.5,643.2 M725.7,643.9c2.1-1.8,4.6-3.6,7.6-2.7
	c3.9,1.2,7.4,3.5,10.2,6.4c-2.9-1.3-5.6-3.1-8.6-4.1C731.8,642.9,728.7,643.5,725.7,643.9 M454,653.2c2.7-3.9,3.3-8.7,6-12.6
	c-0.6,5-1.7,10.4-5,14.4c-6.2,4.2-13.5,6.5-20.7,8.2C440.2,658.7,447.7,657.1,454,653.2 M550,644.7c-0.9-0.1-1.7,1.1-1.1,1.8
	C549.9,647.2,551.3,645.1,550,644.7 M475.3,643.9c0.1,1.5,0.2,2.9,0.3,4.4c0.8-1.3,1.4-2.7,1.9-4.2
	C476.9,644,475.8,643.9,475.3,643.9 M539.1,652.1c2.7-0.6,5-2.2,6.4-4.5c-1.2,0.6-2.4,1.3-3.6,2c2.3-2.8,4.6-5.6,6.8-8.5
	C544.1,643,538.2,646.2,539.1,652.1 M536.7,645c0.6,0.7,1.1,1.4,1.7,2.1c2.3-2.4,4.4-4.8,6.4-7.4C541.5,640.4,539.1,643,536.7,645
	 M472.3,643.5c3.3-4.8,8.4-8.7,14.3-9.5c-2.5,2.8-5.4,5.1-8.2,7.5c0.2,2.1,0.4,4.3,0.7,6.4c4.9-2.8,10-5.6,15.7-6.2
	c13.8-1.3,28-0.5,41.3,3.5c1.5-2,3.1-4,4.6-6c-3.9-1.3-7.7-2.7-11.4-4.4c8.5-0.4,17.5,0.5,25,4.6c2.2,1.1,1.7,4,1.2,6
	c-1.7,4.2-5.9,6.3-9.7,8c-8.2,3.3-17.1,4.5-25.9,4c-5.7-0.7-11.5-3.4-17.2-1.2c-8.9,2.6-19.3,2-26.8-3.9
	C472.8,650.7,470.7,646.7,472.3,643.5 M331.7,643c4.8-2.6,5.7-8.1,8.2-12.5c1.2,4.8-0.6,9.9-4.4,13c-4.3,3.4-9.7,4.8-14.9,6.2
	c0.9-0.9,1.8-1.8,2.7-2.7c-3.7,0.5-7.4,0.9-11.1,0.9C318.2,644.4,326.3,648.2,331.7,643 M786,637.3c1-2.7,1.7-5.5,2.5-8.3
	c-0.1,3,0.5,7.8-3.2,9c-3.6,0.5-6.8-2.7-10.5-1.4c-5.7,1.3-11.7,3-16.5,6.5c-2.1,2.4-0.9,6.1-1.6,9c-4.7-2.9-3.8-10.6,0.8-13
	C766.4,634.7,776.9,633.3,786,637.3 M398.4,633.1c3.6-3.6,8.4-5.9,13.3-6.7c-3.8,2.7-8,4.8-11.1,8.3c0.1,3.4,3.7,5.5,4.8,8.6
	C401.1,642.3,395.9,638.2,398.4,633.1 M723.5,626.2c1.5-4,3.9-7.7,6.7-10.9C728.4,619.2,726.2,622.9,723.5,626.2 M405.7,620.1
	c-1.4-2.2,0.4-4.4,1.4-6.3c0.3,2.2-0.3,4.7,0.9,6.7c1.6,2,3.6,3.6,5.5,5.2C410.5,624.5,407.5,622.9,405.7,620.1 M793.3,609.9
	c3.5,2.5,6.8,5.4,10.9,7c3.9,1.8,8.4,0.6,12.5,1.3c2.7,0.9,5,2.5,7.4,4c-4.2-0.6-8.1-2.5-12.4-2.9c-5.2-0.7-11.1-0.4-15.7-3.4
	C794,614.5,793.4,612.1,793.3,609.9 M385.6,614c-0.3,1.5-0.5,3-0.8,4.5c2.8,0.6,5.7,1.2,8.5,2.1C394,616,389,614.8,385.6,614
	 M369.8,614.8c-0.4,2.5-0.9,5-1.3,7.5c2.6-0.8,5.2-1.7,7.8-2.8c0.2-1.9,0.5-3.6,0.7-5.4C374.5,614.2,372.2,614.6,369.8,614.8
	 M379.1,613.8c-0.4,2-0.8,4-1.1,6.1c4.4,0.5,4.8-3.3,5.6-6.3C382.5,613.6,380.3,613.8,379.1,613.8 M369.1,611.7
	c8-0.8,15.9-2.9,24-1.9c5.2,0.9,8.7,6.9,6.3,11.8c-4.6,7.4-13.1,10.9-20.9,13.8c-8.7,3-18.3,4.1-27.3,1.9c4.3-3.1,6-8.7,10.8-11.2
	c1.6-1.2,3.6-2.1,4.9-3.7c1.3-2.3,1.1-5.2,1.9-7.7c-1.7,0.4-3.4,0.7-5,1.1c-0.4,2.8-0.7,5.7-1.4,8.5c-0.1-1.9-0.4-5.7-0.5-7.6
	c-2.4,1.2-4.8,2.5-7.2,3.7c1.3,2,2.5,4,3.6,6.2c-1.8-1.6-3.5-3.3-5.3-5c-2.8,2.7-5.4,5.7-8.2,8.3
	C348.3,619.6,359.1,614.6,369.1,611.7 M578.9,543.5c1.1,0,1.1,2.5,0,2.5C578.2,545.4,578.2,544,578.9,543.5 M587.4,527.6
	c0.9-0.3,1.3,1.3,0.4,1.6C586.9,529.4,586.5,527.8,587.4,527.6 M528.3,525.5c1.3,1.3,2.5,2.6,3.5,4.1
	C530.6,528.3,529.4,526.9,528.3,525.5 M456,516.6c1.3-0.9,2.7-1.7,4.1-2.6c-0.4,2.1-0.9,4.1-1.5,6.1
	C457.7,519,456.8,517.8,456,516.6 M532.9,538.4c5.5-16.7,17-31.6,32.4-40.1c-6.2,6.8-14.5,11.6-19.6,19.3
	C540.7,524,537.7,531.8,532.9,538.4 M730.7,488.9c4.1,5.3,7.9,10.8,11.9,16.2C736.8,501.4,729.8,496.6,730.7,488.9 M731.9,484.2
	c0.9-0.2,1.8-0.4,2.8-0.6c3.1,6,5.8,12.2,7.9,18.6C738.6,496.5,734.9,490.5,731.9,484.2 M434.7,483.8c1,0.2,2.1,0.4,3.1,0.7
	c-3.3,5.8-6.4,11.9-10.5,17.3C429.1,495.4,432,489.6,434.7,483.8 M753.4,474.1c0.8-0.6,1.6,0.8,0.9,1.3
	C753.5,476,752.7,474.6,753.4,474.1 M415.6,474.1c1,0,0.8,1.6-0.1,1.6C414.5,475.7,414.7,474.1,415.6,474.1 M679.4,473
	c6.4,3,10,9.4,13.3,15.3c5.7,10.7,9.8,22.5,9.9,34.7c-0.1,5.4,0.8,11.2-1.4,16.3c-0.9-9.1-0.2-18.5-2.6-27.4
	C695.3,497.8,689.2,484,679.4,473 M794.5,462.9c4,4.3,4.5,10.9,1.4,15.9C794.8,473.6,794.4,468.2,794.5,462.9 M371.3,471.4
	c0.9-2.9,2-5.7,3.4-8.4c1.2,5.1,0.5,10.3-1.3,15.2C372.5,476,371.3,473.8,371.3,471.4 M799.6,459.8c0.5,0,1.5,0,2,0
	c-0.5,3-1.2,5.9-2.3,8.7C799.2,465.5,799.5,462.7,799.6,459.8 M368.4,458.9c2.6,2.5,2.9,6.3,1.7,9.6
	C369.4,465.3,368.6,462.2,368.4,458.9 M333,465c0.2-3.2,1-6.2,2.5-9C335.1,459.1,334.1,462.1,333,465 M833.8,455.3
	c1.9,3.1,2.5,6.7,3.1,10.3C835.7,462.2,834.4,458.8,833.8,455.3 M820.1,474.2c0-6.8-1.2-13.8,0.8-20.4
	C823.7,460.5,821.9,467.7,820.1,474.2 M601.3,454.8c1.3-0.6,1.9,2.1,0.6,2.2C600.9,456.8,600.5,455.4,601.3,454.8 M567.8,454.7
	c1.6-0.5,0.7,2.9-0.6,2.4C566.7,456.3,567.2,455.2,567.8,454.7 M349.8,475.5c-1.4-7-4.7-14.9-0.8-21.7
	C350.2,461,350.1,468.3,349.8,475.5 M604.4,451.9c1.6,2.4,1.6,5.2,1.7,8C605.3,457.2,604.6,454.6,604.4,451.9 M564,459.8
	c-0.2-2.7-0.1-5.4,0.6-7.9C564.6,454.6,564.3,457.2,564,459.8 M817.8,446.7c0.7,1.9,1.2,3.9,1.6,5.8
	C818.9,451.1,818.2,448.1,817.8,446.7 M350.9,452.6c0.2-2,0.5-3.9,0.9-5.9C351.6,448.7,351.3,450.7,350.9,452.6 M809.4,445.6
	c3.6,7.7,4.4,16.2,4.5,24.6C811.6,462.2,808.6,454.2,809.4,445.6 M355.4,470.9c0.2-8.7,1-17.7,4.9-25.6
	C361.2,454.2,358.1,462.7,355.4,470.9 M812.1,444.7c1.8,1.3,3.8,2.7,3.5,5.4c1.3,6.7,2.2,13.6,0.7,20.4
	C815.2,461.8,814.5,453.1,812.1,444.7 M352.7,457c1-4.2,0.7-9.4,4.4-12.3c-1.4,8.6-2.9,17.1-3.8,25.7
	C352,466.1,351.8,461.4,352.7,457 M820.7,445c0.9-0.5,1.7,1.1,0.9,1.6C820.7,447.1,819.9,445.5,820.7,445 M804.8,444.4
	c0.4,0,1.2,0.1,1.6,0.1c-0.5,1.1-0.9,2.3-1.4,3.4C804.9,446.8,804.9,445.6,804.8,444.4 M363.9,445.1c1.2-0.2,1.2,2.2,0,2
	C363.2,446.7,363.2,445.5,363.9,445.1 M348.8,444.7c1,0,0.8,1.6-0.1,1.6C347.7,446.2,347.8,444.6,348.8,444.7 M749,424.8
	c3.2-2.1,6.6-3.9,10.1-5.3C755.9,421.6,752.5,423.5,749,424.8 M409.4,418.9c2.9,1.3,5.9,2.6,8.4,4.6
	C414.8,422.4,411.8,421.1,409.4,418.9 M636.5,429.1c1-4.5,2.8-8.8,4.4-13.1C640.4,420.5,640.5,426,636.5,429.1 M768.1,417.7
	c2-2.3,4.1-4.7,6.8-6.4C773.8,414.5,770.9,416.2,768.1,417.7 M394.8,411.8c2.5,1.8,5.1,3.7,7.1,6
	C399.2,416.3,396.3,414.7,394.8,411.8 M384.6,411.5c2.7,3.2,5.6,6.5,6.2,10.8C387.9,419.3,385.4,415.7,384.6,411.5 M778.5,422.4
	c1.3-4.3,3.9-8.1,6.8-11.5C784.5,415.4,781.8,419.3,778.5,422.4 M643.5,409.5c1.3,5.9-0.5,11.9-2.2,17.6
	C641.6,421.1,642.7,415.3,643.5,409.5 M783.7,409.7c0.7-1.4,1.3-2.7,2-4.1c0.1,1.4,0.1,2.8,0.1,4.1
	C785.3,409.7,784.2,409.7,783.7,409.7 M774.7,406c1,0,0.8,1.6-0.1,1.6C773.6,407.5,773.8,405.9,774.7,406 M384.4,405.4
	c0.3,1.6,0.4,3.2,0.2,4.7C384.5,408.6,384.4,407,384.4,405.4 M389.6,404c2.8,7.3,5.3,15.1,11,20.9c-3.2-2.5-6.6-4.8-9.3-7.8
	C389.4,413,389.8,408.3,389.6,404 M776.1,413.9c1.1-3.6,1.9-7.5,4.4-10.5c-0.4,5.6,0.2,12.5-5,16.2c-1.8,1.6-3.6,3-5.4,4.5
	C772.3,420.9,774.9,417.8,776.1,413.9 M781.4,409.4c0.1-4.5,0.6-9.1,3-13.1C784,400.8,783.5,405.3,781.4,409.4 M777.6,403.4
	c0.7-2.7,2.7-4.8,4.4-6.9C781.1,399.1,779.6,401.4,777.6,403.4 M387.8,396.5c1.6,2.1,2.9,4.5,4.3,6.8
	C390.5,401,388.8,399,387.8,396.5 M384.9,395.7c2.4,3.9,2.8,8.5,3,13C386.4,404.5,385.3,400.1,384.9,395.7 M787.9,396
	c1.2-0.2,1.2,2.2,0,2C787.2,397.5,787.2,396.3,787.9,396 M381,396c1.1-0.4,1.7,2.1,0.5,2.2C380.6,397.9,380.3,396.5,381,396
	 M430.5,399.5c-4.2-3.5-3.9-8.8-3.7-13.7C428.3,390.3,429.5,394.9,430.5,399.5 M739.3,399.5c0.9-4.9,1.7-9.8,3.8-14.3
	C743.3,390.1,742.9,395.6,739.3,399.5 M745.1,384.8c0.4,0,1.2,0,1.6,0c-0.3,2.5-0.6,5.1-1,7.6C745.5,390.5,745.3,386.7,745.1,384.8
	 M424.4,392.6c-1.8-2.5-2-5.9-0.1-8.4C424.3,386.3,424.3,390.5,424.4,392.6 M738.7,389.1c0.2-2.9,0.7-5.9,1.5-8.7
	C740.6,383.4,740.1,386.4,738.7,389.1 M429.3,380c0.7,3,1.3,6.1,1.7,9.2C429.4,386.4,429.7,383,429.3,380 M540.1,379.1
	c0.4-0.7,1.6-0.7,2,0C542.3,380.2,539.9,380.2,540.1,379.1 M668.8,378.4c3,1,6.4,1.8,8.1,4.7C673.8,382.3,671.3,380.3,668.8,378.4
	 M543.9,378.4c0.3-0.8,1.9-0.5,1.6,0.4C545.2,379.6,543.6,379.3,543.9,378.4 M492.7,382.7c2.5-1.9,5.3-3.6,8.4-4.5
	C498.8,380.4,496,382.4,492.7,382.7 M547.2,377.7c0.3-0.8,1.9-0.5,1.6,0.4C548.4,379,546.9,378.6,547.2,377.7 M551.1,377.1
	c0.3-0.8,1.9-0.5,1.6,0.4C552.4,378.3,550.8,378,551.1,377.1 M712.7,362.2c1,0.2,1.9,0.5,2.9,0.7c-0.7,3.1-1.6,6.2-2.9,9.1
	C712.6,368.8,712.2,365.5,712.7,362.2 M457.3,372.6c-1.8-3.5-4.3-7.9-1-11.4C456.7,365,457.1,368.8,457.3,372.6 M695.6,373.3
	c0.5-7.2,1.3-14.4,2.7-21.5C698.3,359,697.6,366.3,695.6,373.3 M471.3,351.9c1.2,6.6,1.9,13.3,2.4,20
	C472.3,365.3,471.3,358.6,471.3,351.9 M751.8,335.2c0.6-0.7,1.9-0.7,2.5,0C754.3,336.3,751.8,336.3,751.8,335.2 M417.6,334.6
	c1.3,1.1-2,2.1-2,0.6C415.9,334.5,416.9,334.3,417.6,334.6 M504.3,332.9c0.9-0.6,2.1,0.9,1.4,1.7
	C504.8,335.1,503.6,333.6,504.3,332.9 M665.3,332.1c1.3,0.4-0.1,2.5-1.1,1.8C663.6,333.2,664.5,332,665.3,332.1 M747.3,331
	c1.3-0.6,1.7,1.3,0.4,1.4C746.3,333,745.9,331.2,747.3,331 M421.3,331.2c0.6-0.8,2.2,0,1.6,0.9C422.4,332.9,420.9,332.1,421.3,331.2
	 M747.9,327.5c3.1-0.1,6.3-0.2,9.5-0.1C754.5,328.9,750.8,329.6,747.9,327.5 M502.2,327.8c1.1-0.4,1.7,2.1,0.5,2.2
	C501.8,329.8,501.5,328.4,502.2,327.8 M737.5,301.6c1.6-1.6,3.3-3.1,5.3-4.3c0.2,1.1,0.4,2.1,0.7,3.2
	C741.5,301,739.5,301.3,737.5,301.6 M427.2,297.2c1.9,1.2,3.4,2.9,5,4.5c-1.9-0.4-3.8-0.8-5.7-1.4
	C426.8,299.3,427,298.3,427.2,297.2 M733.5,304.5c1.9-3.3,3.4-7.3,7-9C738.6,298.8,736.1,301.7,733.5,304.5 M429.3,295.4
	c2.9,2.8,5.3,6.1,7.5,9.5C433.4,302.5,431.1,299,429.3,295.4 M721.7,315.6c5-7.3,10-14.8,16.4-20.9
	C734.4,302.9,728.3,309.6,721.7,315.6 M431.8,295c6.2,5.4,10.6,12.6,15.1,19.4C440.6,308.9,435.3,302.5,431.8,295 M720.2,298.5
	c3.6-3.6,7.5-6.9,12.3-8.9C729,293.3,724.6,296.1,720.2,298.5 M437.4,289.6c4.8,1.9,8.6,5.4,12.4,8.8
	C445.2,296.2,440.7,293.6,437.4,289.6 M592.7,276.7c1.2-0.2,1.2,2.2,0,2C591.9,278.3,591.9,277.1,592.7,276.7 M620.4,275
	c3.5,0.1,6.9,0.6,10.4,1.1C627.3,276.2,623.8,275.6,620.4,275 M539.2,276.1c3.2-0.6,6.4-1,9.6-1.2
	C545.7,275.8,542.4,276.3,539.2,276.1 M634.8,274.6c1.2-0.4,1.8,2.1,0.5,2.2C634.5,276.4,634.1,275.2,634.8,274.6 M632.6,274.4
	c1.1,0,1.1,2,0,2C631.5,276.3,631.5,274.4,632.6,274.4 M537,274.4c1,0,1,1.9,0,1.8C536,276.1,535.9,274.4,537,274.4 M590.8,273.7
	c4.5-3.6,10.9-2.8,16-1c1.2,0.5,2.5,0,3.7-0.2c0.1,0.7,0.2,1.4,0.4,2.1C604.3,273.8,597.4,270.9,590.8,273.7 M558.4,272.8
	c6.9,0.9,14.8-4.4,20.6,1.1c-5.4-2.5-11.6-1.6-17.1,0.3C560.5,274.9,559.5,273.5,558.4,272.8 M611.4,270.6c1.3,2.5,2.5,5,3.8,7.6
	c0.2-1.9,0.6-5.7,0.8-7.7c0.4,3.6,0.5,7.2,0.3,10.8c-0.5,0-1.6-0.1-2.2-0.1C613.1,277.7,612,274.2,611.4,270.6 M553.4,280.9
	c-0.4-3.5-0.6-7.1,0.5-10.5c0.2,1.9,0.6,5.8,0.8,7.7c1.2-2.5,2.3-4.9,3.6-7.4c-0.8,3.6-1.7,7.2-2.9,10.6
	C554.8,281.3,553.9,281.1,553.4,280.9 M486.9,273.7c-0.7-3.7-1-7.4-1.1-11.1C486.5,266.3,486.8,270,486.9,273.7 M683.2,271.1
	c-0.4-3.5,0-7.1,0.8-10.5C684.2,264.2,683.7,267.7,683.2,271.1 M566,256.1c12.6,0,25.3,0.1,37.9-0.1
	C591.3,257.7,578.5,257.5,566,256.1 M596.9,249.9c0.5-0.8,1.9,0.1,1.3,0.9C597.7,251.5,596.3,250.7,596.9,249.9 M571.7,249.8
	c0.9-0.7,2,0.8,0.9,1.3C571.7,251.8,570.6,250.3,571.7,249.8 M483.3,249.3c0.8,2.6,1.6,5.3,1.5,8.1
	C484.1,254.7,483.4,252,483.3,249.3 M684.5,257.5c0.3-2.9,0.6-5.9,1.4-8.7C686.4,251.8,686.1,254.9,684.5,257.5 M597.3,247.4
	c0.6-0.9,2.1,0.2,1.4,1C598.1,249.3,596.6,248.3,597.3,247.4 M571.6,247.3c0.9-0.4,1.5,1.2,0.5,1.4
	C571.2,249,570.6,247.5,571.6,247.3 M684.7,221.2c0.7-1.8,1.7-3.5,2.9-5C686.9,217.9,685.9,219.6,684.7,221.2 M481.8,216
	c1.5,1.5,2.6,3.3,3.4,5.2C483.8,219.6,482.7,217.9,481.8,216 M688.1,214.7c0.6-1.5,1.3-3,2.2-4.4C689.7,211.8,689,213.3,688.1,214.7
	 M479,210.2c1.1,1.3,2.1,2.8,2.6,4.4C480.5,213.3,479.6,211.8,479,210.2 M692,201.3c0.4,0,1.3,0.1,1.7,0.1c-0.4,1.6-0.9,3.2-1.3,4.8
	C692.3,204.6,692.1,202.9,692,201.3 M476.8,205.6c-0.3-1.6-0.4-3.2-0.2-4.7C476.8,202.4,476.9,204,476.8,205.6 M694.9,206.3
	c-0.3-2.3,0.3-4.4,1.6-6.2C696.2,202.2,695.7,204.3,694.9,206.3 M473.3,200.1c0.5,2.1,1.3,4.1,1.7,6.3
	C473.9,204.5,473.3,202.3,473.3,200.1 M623.8,100.3c8.2,1,15.4,6.1,19.5,13.1C636.5,109.4,630.1,105,623.8,100.3 M526.6,113.3
	c4.3-6.8,11.1-11.6,19.1-13C539.7,105.2,533.1,109.2,526.6,113.3 M618.6,98.9c1.9,0.6,3.6,1.6,5.1,2.9
	C621.8,101,620.1,100,618.6,98.9 M546.3,101.7c1.5-1.3,3.2-2.3,5.1-2.9C549.8,100,548.1,101,546.3,101.7 M620.3,96.6
	c1.3,0.8,2.6,1.7,3.8,2.7C622.8,98.5,621.5,97.6,620.3,96.6 M545.2,99.4c1.3-1.2,2.7-2.2,4.3-3.1C548.2,97.6,546.8,98.6,545.2,99.4
	 M550.3,97.5c1-1.6,2.2-3,3.8-4.1C553.4,95.3,552.1,96.7,550.3,97.5 M615.1,93c1.7,1.2,3.2,2.7,4.4,4.4
	C617.5,96.6,615.9,95.1,615.1,93 M537.6,92.4c0.9-0.3,1.3,1.3,0.4,1.6C537.1,94.3,536.7,92.7,537.6,92.4 M554.2,95.5
	c1.1-2.5,3.3-4.2,6-4.5C559,93.3,556.8,94.9,554.2,95.5 M609.1,90.5c2.6,0.7,5.2,2.1,6.1,4.9C612.5,94.8,610.5,92.9,609.1,90.5
	 M594,92.4c1.4-0.6,2.9-1.2,4.3-1.7c1.3,2.3,2.7,4.5,4,6.8C599.3,96.4,596.6,94.4,594,92.4 M571.5,90.6c1.5,0.6,2.9,1.2,4.4,1.8
	c-2.5,2.1-5.4,3.6-8.4,5C568.8,95.1,570.1,92.9,571.5,90.6 M606.7,90.3c1-0.5,2.2,1.1,1.7,2C607.4,92.8,606.1,91.2,606.7,90.3
	 M562.4,90.3c1.3,0.3,0.2,2.6-0.9,1.9C560.9,91.5,561.6,90.3,562.4,90.3 M592.3,87.3c1.1,0.7,3.3,2.2,4.3,2.9
	c-1.1,0.4-2.2,0.7-3.3,1.1C593,90,592.7,88.7,592.3,87.3 M573.2,90.3c1.4-1.1,2.8-2.2,4.2-3.2c-0.3,1.4-0.5,2.8-0.8,4.2
	C575.4,91,574.3,90.7,573.2,90.3 M599.4,86.4c2.4,0.1,4.2,1.7,5.2,3.8C602.6,89.2,600.9,87.9,599.4,86.4 M565.2,90
	c1.3-1.8,2.7-3.8,5.4-3.4C568.9,87.9,567.1,89,565.2,90 M606.5,88c1.3-0.9,2.6-1.6,4-2.1C609.3,86.8,607.9,87.5,606.5,88
	 M559.3,86.2c1.5,0.5,2.9,1.1,4.2,1.8C562,87.5,560.6,87,559.3,86.2 M631.3,611.9c1.8-1.2,4.3-2.2,4.8-4.5c0.3-3.3,0-6.5,0.2-9.8
	C634.8,602.5,633,607.2,631.3,611.9 M534.4,592.5c2.6,2.7,5.5,5,8.8,6.8c1.1-0.6,2.1-1.3,3.1-2C542.8,594.9,538.8,592.9,534.4,592.5
	 M568.9,589.7c0.3,2.2,1,4.4,2.4,6.1C570.7,593.6,569.9,591.6,568.9,589.7 M502.8,583.2c1.1,4,1.8,8.3,3.8,12
	c2.9,5.8,8.6,9.3,12.7,14.2c2.4,2,4.5,5.6,8.2,4.6c11.1-2,21.6-7,30.4-13.9c-0.5-0.5-1.1-1-1.6-1.6c-8.9,5.2-18.1,11.1-28.7,11.6
	c-2.5-0.1-3.2-3-4.4-4.8c5.2-1,10.7-1.6,15.5-4.1c-1.9-1.3-4-2.3-6-3.5c-2.2-1.3-3.1-3.8-5-5.4c-1.9-1.8-4.2-3.1-6.4-4.5
	c1.6,3.6,3.7,6.9,6,10.2c-1.9-1.2-3.7-2.5-5.6-3.7c0.6,1.4,1.1,2.9,1.7,4.3c-1.5-1.4-2.9-2.8-4.4-4.2c0.9,2.3,1.8,4.6,2.5,7
	c-3.7-2.9-6.6-6.7-9.7-10.3c1.1,2.5,2.3,4.9,3.3,7.4c-2.6-3.2-4.8-6.7-7.2-10.1c0.8,2.3,1.7,4.6,2.5,6.9
	C507.3,591.7,505.1,587.5,502.8,583.2 M539.5,559.9c-0.3,1.1,0,1.4,1.1,1.1C541,559.9,540.6,559.6,539.5,559.9 M677.8,555.3
	c-1.3,0.3-0.7,2.3,0.5,1.9C679.6,557,679,554.9,677.8,555.3 M741.6,553.1c-0.4,1.2,2.2,1.6,2.3,0.4
	C743.5,552.7,742.2,552.4,741.6,553.1 M427.5,552.6c-0.7-0.2-2.1,0.8-1.1,1.4C427.4,554.8,429.2,552.8,427.5,552.6 M489,546.8
	c-1.9,0.9-3.9,1.6-5.8,2.3c0.9,2.2,1.6,4.7,3.6,6.3c2.2,1.7,4.6,3,6.5,5C492.1,555.8,490.6,551.3,489,546.8 M759.5,554.4
	c-4.9,0.3-9.7-0.9-14.6-0.9c3.6,0.9,7.2,2.7,11,2.7c10.2-0.2,16-10,23.3-15.6C771.9,544.1,767.6,552.2,759.5,554.4 M390,540.6
	c6.4,5.3,11.8,12.1,19.8,15.1c5.2,1.9,10.3-0.9,15.2-2.2c-5.3,0.2-10.7,1.3-16,0.4C401.3,551.5,397.5,543.4,390,540.6 M668.4,553.2
	c-3.6,5.9-10.7,7.6-16.6,10.3c-1.4,2-1.8,4.5-2.5,6.9c6-2.9,11.9-6.1,17.7-9.4c2.8-1.9,6.2-3.5,7.7-6.7c0.7-5.4,0.3-10.9,0.3-16.3
	C673.2,543.2,670.9,548.3,668.4,553.2 M778.6,536.2v0.7c2.5,0,7.4,0,9.8,0v-0.7C786,536.2,781.1,536.2,778.6,536.2 M469.4,536.5
	c-1.3,3.6-5.5,4-8.6,4.8c3.6,2.1,7,4.7,11.1,5.8C471,543.6,470,540.1,469.4,536.5 M381.1,536.7c3.3,0.1,6.6-0.2,9.9-0.3
	C387.7,536.3,384.4,536.5,381.1,536.7 M506.5,532.9c1.5,6.7,1.8,14.3,6.7,19.7c5.3,3.9,11.2,7,17.3,9.5c1.5,0.7,3.2-0.9,3.3-2.4
	c0.1-5,0.5-9.9,1.5-14.8c-5.8-1-11.7-2-17.3-3.8C513.5,539.5,510,536.1,506.5,532.9 M733.7,532c-3.3,0.6-6.7-0.2-9.5-1.9
	c-4.6,3.8-10.8,5.4-14.1,10.5c18.2-4.2,36.9-5.2,55-9.4c1.4,0.1,1.5-2,0-1.7C754.6,528.9,744,529.9,733.7,532 M402.6,530.6
	c18.5,4.7,37.5,6.2,56.3,9.6c-1.8-1.9-3.1-4.4-5.7-5.2c-2.9-1-5.1-3.3-7.8-4.6c-3,0.9-5.9,2.4-9.1,1.4c-9.9-1.8-20-2.7-30.1-2.6
	C404.9,529.3,403.8,530,402.6,530.6 M635.9,544.1c-4.1,13.2-7.4,26.6-9.8,40.1c-1.1,7.4-4.5,14.9-2.7,22.5
	c2.1-6.1,3.1-12.4,4.5-18.7c5.1-20.4,10.6-40.7,14.9-61.3C639.3,532,637.9,538.3,635.9,544.1 M799.4,532c-5.9,0.7-11.9,0.3-17.8,0.7
	c4.8,1.1,9.8,1.1,14.7,0.9c5.3,0.9,7.4-4.6,9.8-8.2C803.7,527.5,802,530.3,799.4,532 M362.5,524.2c2.1,3.3,3.9,7.2,7.5,9.1
	c6.1,1,12.4,0.1,18.5-0.8c-6.2-0.4-12.4-0.3-18.5-0.4C367.4,529.4,365,526.7,362.5,524.2 M645,528c0.9-1.9,1.5-3.9,1.9-5.9
	C645.9,523.9,645.3,525.9,645,528 M646,528.1c-5.9,19.2-9.6,39.1-14.8,58.5c-1.7,7.8-4.9,15.4-4.8,23.4c3.8-10.4,5.7-21.3,8.9-31.9
	c5.8-19.3,10.2-38.9,15.2-58.3C647.7,521.8,647.1,525.2,646,528.1 M634.9,512.3c-3.6,1.6-8,2.9-9.5,6.9c-2.1,3.3-2.7,7.9-6.3,10.1
	c-4.6,2.6-5,8.7-6.1,13.2c-0.4,6.6,1,15.6-5.9,19.5c-3.2,2.6-2.7,7.5-3.3,11.2c-0.9,4.3,1.6,8.1,2.4,12.2c0.6,3.9-3.9,5.6-3.7,9.5
	c-0.5,4.5-1.1,10.5,3.2,13.4c5.1,4.3,12,3.5,18.2,4.2c-2.1-3.3-4.5-6.6-5.1-10.5c-1.5,1.5-2.9,3.1-4.3,4.7c-1.8-1.2-4-1.9-5.3-3.7
	c-1-2-0.6-4.4-0.5-6.5c0.5-5.9,0.8-11.9,1.3-17.9c0.6-6.4,2.7-12.4,4.2-18.6c1.1-4.1,1.9-8.3,3.8-12.1c2.3,1.3,5.4,2.3,5.3,5.7
	c2.3,12.3-2.8,24.5-2.4,36.9c2.1-8.1,3-16.4,5.1-24.5c2-8.6,4.7-17,7.3-25.5c1.9-5.8,4-11.6,7.9-16.3c2.6-3.3,6.8-4.5,10.7-5.7
	c1,2.9,2.3,5.7,1.8,8.9c-2.2,16.3-6.4,32.1-10.6,48c2.2-4.4,3.5-9.3,5.1-14c3.2-10.7,6.7-21.3,9.2-32.1c0.9-3,0.4-6.1,0.1-9.1
	c-6.1-2-12-4.9-18-7.2C638,512.2,636.4,511.5,634.9,512.3 M792.4,510.6c-1.9,4.9-4.2,9.5-6.5,14.2c5.5-2.3,7.7-8.2,10.1-13.2
	C794.8,511.2,793.6,510.9,792.4,510.6 M374,511.5c2,5.2,4.4,11.2,10,13.2c-2.7-4.5-4.6-9.4-7-14.1C376,511,375,511.3,374,511.5
	 M818.4,512c2.7-0.3,5.4-1.1,7.8-2.5C823.4,510,820.8,510.8,818.4,512 M343.2,509.5c2.4,1.4,5,2.1,7.7,2.5
	C348.3,511.1,345.8,510.2,343.2,509.5 M780.6,521.1c-0.9-0.4-1.7-0.7-2.6-1.1c-0.3,1.9-0.5,3.9-0.8,5.8c1.9-0.5,4-0.4,5.9-1.1
	c2.2-2,4.5-4.7,4.1-7.9c-0.2-2.9,0.5-5.8,0.6-8.7C785,512.3,783,516.8,780.6,521.1 M382,508.6c0.1,4.8-1,10.1,2.5,14.1
	c1.6,3.2,5.4,2.3,8.3,3.2c-0.5-1.9-1-3.8-1.4-5.6c-0.8,0.2-1.5,0.5-2.3,0.7C386.7,516.8,384.4,512.6,382,508.6 M818.4,509.9
	c4.3-0.8,8.7-1.8,12.3-4.5C826.4,506.2,822.3,507.8,818.4,509.9 M339.2,505.4c3.4,2.5,7.6,3.5,11.6,4.6
	C347.2,508,343.4,506.1,339.2,505.4 M664,502.6c5.1,7.7,7.8,16.5,9.7,25.4c2,5.7,2.8,11.7,3.7,17.6c0.3-7.6,0.3-15.2-1.7-22.6
	C674.1,515.2,669.1,508.6,664,502.6 M662.4,500.4c-0.7,0.7,0.3,2.1,1.2,1.4C664.3,501.2,663.2,499.8,662.4,500.4 M833.8,501.1
	c0.9-1.6,1.6-3.3,2-5.1C835,497.7,834.3,499.4,833.8,501.1 M333.7,495.9c0.4,1.8,1.1,3.6,2,5.2C335.2,499.3,334.6,497.5,333.7,495.9
	 M819.4,495.6c-6.1,4.5-11.6,9.6-18,13.6c-5.1,2.6-7.2,8.1-9.7,12.9c7.2-2.8,13.7-7.2,19.5-12.2
	C815.5,506.1,817.4,500.7,819.4,495.6 M350.4,495.6c1.9,5.2,3.6,10.9,8.2,14.4c5.9,4.9,12.4,9.2,19.5,12.2
	c-2.7-4.4-4.5-9.9-9.2-12.6C362.2,505.5,356.4,500.4,350.4,495.6 M821.8,497.8c1.2-1.6,2.1-3.4,2.7-5.2
	C823.3,494.1,822.4,495.9,821.8,497.8 M345.4,492.7c0.5,1.6,1.2,3.1,2,4.5C346.8,495.6,346.2,494.1,345.4,492.7 M647.3,486.5
	c5.2,4.1,10.1,8.5,14.8,13.2C658.8,493.7,653.4,489.3,647.3,486.5 M637,484.9c9.5,6.1,18.9,12.7,25.7,21.7c1.6,2.9,2.4,6.3,3.7,9.3
	c0.7-0.3,1.5-0.5,2.2-0.8c-2.8-6.2-6.1-12.3-11.3-16.8C651.2,492.9,644.7,487.7,637,484.9 M500.4,517.5c-2.1,3.5,0.4,6.5,2.1,9.4
	c0.3,0,1-0.1,1.3-0.1c0-4.9-0.4-10,1.8-14.5c4.5-12.5,16-20.4,26.7-27.2C518.2,491.3,505,502.4,500.4,517.5 M536.2,484.5
	c-11.1,5-21.2,12.7-27.7,23.2c0.8,0,1.6,0.1,2.4,0.1c1.2,7.1,2,14.6,6.1,20.8c-1.5-5.2-3.2-10.4-3.5-15.8c2.1,4.1,2.1,8.9,4.4,13
	c1.6,3.7,4.7,6.4,8,8.7c-2.8-4.8-5.8-9.6-7.3-15c6.5,2.8,8,10.4,13,14.9c-3.2,1.3-6.9,1.1-10-0.3c-5.3-2.3-10.8-5.3-14.1-10.2
	c-2.5-3.7-0.5-8-0.3-12.1c-3.1,5.4-2.6,12.2,0.9,17.4c2.9,2.6,6.9,3.3,10.4,4.8c5,1.7,9.8,4.4,15,5.4c6-3.9,8.3-11.2,13.1-16.3
	c5.9-6.6,11.5-13.8,19.5-18c0.3,4-4.1,3.6-5.8,6.2c-5.2,6.9-9.7,14.4-12.4,22.6c3.7-4.6,5.5-10.7,10.3-14.3c-0.3,2.8-1,5.6-1.5,8.4
	c2.4-5,4-10.4,6.3-15.4c1,0.4,1.9,0.8,2.9,1.3c3.5-7.6,10.9-13.1,19.2-14.2c-3.2,2.1-7.2,2.8-10.3,5.2c-5.7,5.2-6.4,13.2-9.7,19.8
	c-5.6,12.4-9.5,25.7-10.5,39.3c-0.2,7.8,2.2,15.5,6.8,21.8c0.4-8.2,1.7-16.3,1.6-24.5c0.1-8.4,0.6-16.9,3.7-24.7
	c0.5,2.6,0.5,5.3,0.6,7.9c4.1-12.7,4.3-27.2,12.8-38.1c2-1.3,4.4-2.2,6.7-2.9c-2.5,2.2-5.9,3.7-7.2,7c-1.6,3.7-2.5,7.7-3.7,11.6
	c6.1-12.9,21.5-20,35.2-16.1c-6.1,1.8-12.6,2.4-18.7,4.4c-5.3,1.8-9.3,6.1-11.9,11c-6.2,13.2-8.9,27.7-10.3,42.1
	c-0.8,10.6,0.6,21.5,4.4,31.5c1,2,1.7,4.7,4.1,5.7c7.4,3.9,15.5,5.9,23.3,8.8c-1.1-3.4-1.9-6.9-2.7-10.3c-6.5-0.3-13-1.9-18.7-5
	c-3.3-3-5.9-6.8-7-11.2c-1.4-6.1-3.3-12.3-2.2-18.6c1.3-9.1,2.1-18.5,5.8-27.1c-1.7,11.7-4.1,23.5-1.5,35.3c0.6-2.5,1-5.2,1.2-7.7
	c0.3,0.7,0.6,1.5,0.8,2.2c0.7-5.4,0.9-10.8,1.4-16.2c1,4.3,1.5,8.7,2.5,13c-0.2-5.6-1.1-11.2-1.4-16.8c0.3-4.7,2-9,4.1-13.1
	c-0.4,11.7-0.7,23.6,1.8,35.2c-0.2-10.1-1.6-20.1,0.1-30.1c3.6,9.4,1.7,20.2,5.7,29.6c-0.6-7.6-2-15.2-1.7-22.9
	c3.8,7,3,15.6,6.5,22.8c-0.4-6-1.8-11.8-2.1-17.8c2.2,4.8,3,10.1,4.5,15.2c-0.2-4-0.7-7.9-0.7-11.9c0.8,3,1.7,6,2.4,9
	c2.2-1.8,4.5-3.4,6.8-5c3.3-4.4,2.2-10.1,2-15.2c0.7-4.8,2.4-9.5,5-13.7c1.6-2.4,5-2.7,6.3-5.4c2.6-5.3,6.5-9.6,11.4-12.8
	c-5.1-1.3-10.1-2.5-15.2-3.8c-3-1-6.4-1.7-8.5-4.2c15.2,0.8,30,5.4,43.8,11.7c2.3,1.3,4.8,2.3,6.8,4.1c1.8,3.7,1.8,7.8,2.4,11.8
	c1.5-4.6,3.7-9.7,1.8-14.5c-3.7-7.9-9.9-14.2-14.9-21.2c-4.4-4.1-9.8-7.2-15.3-9.3c-17.5-0.8-30.7,14.5-47.9,15.3
	c0-0.4-0.2-1.2-0.2-1.6c2.1-0.8,4.1-1.8,6.1-2.8c-6.5-0.8-13-0.3-19.5,0c-0.7,2.8-1.2,5.7-2.7,8.1c0.3-3.1,0.6-6.3-0.1-9.4
	c-5.2-1.8-12.2-2.3-14.7-7.9C549,483.6,542.1,481.8,536.2,484.5 M648.2,476.4c-4.2,0-7.2,3.4-10.6,5.3c3.2,0.7,6.5,1.5,9.7,1.9
	c2,0.3,4.3-0.5,6.1,0.8c3.8,2.9,7.2,6.4,10.2,10.1c3,3.8,7.5,6,10.3,10c5.9,10,8.7,21.7,9.4,33.2c0.2,6.1-1.3,12-0.9,18.1
	c3.7-3.6,4.6-9,5.5-13.8c3.3-14.3-0.7-29-6.1-42.3c-4.2-8.9-10-17.5-18.7-22.6C658.7,473.8,653.3,477,648.2,476.4 M498.4,483.4
	c-2.6,3.1-6.3,6.1-6.2,10.5c-1,6.4-4.1,12.4-4.6,18.9c2.1-2.8,3.9-5.9,6-8.7c3-4.3,8.8-4.3,12.4-7.9c-3.4,4.8-6.7,9.8-9,15.2
	c-4.9,10.9-5.6,23.2-4.5,34.9c0.4-5.6,1.2-11.1,3.2-16.4c-0.7,9.9-3.1,20.5-0.5,30.3c3.7,4.5,10.6,4.3,15,8.1
	c-4.5-0.4-8.6-1.9-12.9-3.1c5.6,5.7,13.8,4.9,21,6.3c-1.2-1.8-2.4-3.6-3.5-5.4c7.8,1.6,11.1,10.7,18.5,13.1c4.4,1.2,9,1.8,13.5,2.9
	c4.1,1.3,7.6,3.8,11.2,5.9c-3.1-5.4-5.5-11.3-7.1-17.3c-0.2,2.1,0.3,4.1,0.7,6.1c-4.8-1.4-9-4.3-13.6-6.1c-5-0.9-10.2-0.5-15-2.3
	c-7-2.8-13.4-6.7-20.1-10.2c-5.2-6.4-7.6-15.1-6.6-23.3c0.7-10.6,2.1-21.8,8.4-30.7c4.3-7.4,11.2-12.6,17.7-18
	c-3.2,1.5-6.1,3.6-9.1,5.5c3.3-7.1,11.7-9.3,18.8-9.9c-2.9-1.6-5.5-3.7-8.6-5c-3.1-0.6-6.4-0.2-9.4-1
	C507.8,474.3,502.6,479.4,498.4,483.4 M543.3,474.4c1.6,2.4,3.7,4.4,5.9,6.4C547.5,478.4,545.4,476.4,543.3,474.4 M620.1,480.7
	c2.8-2.1,5.3-4.7,7.2-7.6C624.7,475.4,622.3,478,620.1,480.7 M584.9,468.4c-2.3,7.7-3.9,15.5-4.8,23.4c3,0.1,5.9,0.2,9,0.3
	C588.6,484.1,587,476.2,584.9,468.4 M400,468.9c-0.7,0.3-1.5,1.3-1,2.1C400.1,471.7,401.7,468.7,400,468.9 M767.5,467.2
	c1.2,1.7,2.6,3.2,3.9,4.8C770.2,470.4,768.9,468.7,767.5,467.2 M534.7,464.8c1.7,1.8,3.4,3.5,5.1,5.3c0.1-1,0.3-1.9,0.4-2.8
	c4.8,4.4,8.5,9.9,13.4,14.1c3.6,2.3,7.3,4.5,10.7,7c4.2,3.2,9.8,3.5,14.8,4.2c0.3-8.7,2.3-17.1,4.3-25.4c-1,0.1-2.9,0.4-3.8,0.6
	c-0.9,6.8-0.9,13.7-2.7,20.3c0-6.9,1-13.7,1.2-20.6c-2,0-4-0.1-5.9,0c-0.1,6.9-0.6,13.8-0.7,20.8c-2-3.1-2.3-6.9-3-10.4
	c-0.6,3.4-1.2,6.9-2,10.3c-0.4-7-0.1-14.1,0.8-21.1C556.4,466.5,545.5,465.4,534.7,464.8 M655.3,472.1c5.2-2.3,10.7-4.6,14.9-8.5
	C664.8,465.8,658.6,466.8,655.3,472.1 M602.4,466.9c1.2,7.1,1.6,14.2,0.8,21.4c-1-3.5-1.7-7-2.3-10.6c-0.7,3.5-1.2,7.1-2.7,10.4
	c-0.5-6.9-0.5-13.8-0.5-20.7c-1.6,0-4.9,0-6.5,0c0.9,6.8,1.2,13.7,1,20.6c-1.2-6.7-1.4-13.5-2.7-20.2c-0.9-0.2-2.7-0.6-3.6-0.8
	c2.3,8.3,4.5,16.6,4.3,25.3c8.4,0.9,15.3-4.1,21.9-8.5c6.9-3.5,10.9-10.5,16.3-15.8c3.1,1.4,5.2-2,7.7-3.3c0.9,4.9-2.7,8.6-5.7,11.8
	c3.3,0,6.8,1.6,10,0.1c7-3.1,14.2-6.4,19.1-12.6C640.5,462,621.5,467.1,602.4,466.9 M509.8,464.1c5.4,5.7,12.2,9.7,19.4,12.8
	c3.3,1.1,6.9-0.4,10.3-0.2c-2-2.2-4-4.5-5.7-6.9c-1-1.7-0.2-3.8-0.1-5.6C525.8,463.3,517.8,463.4,509.8,464.1 M499.6,463.7
	c4.4,3.8,9.7,6.6,15.2,8.4C511,467.4,505.2,465.5,499.6,463.7 M584.2,461.7c-0.7,0.9,0.8,1.9,1.4,1
	C586.3,461.9,584.8,460.8,584.2,461.7 M678.7,463.4c3.3-0.5,6.6-1.2,9.7-2.5C685,461,681.7,461.7,678.7,463.4 M480.8,461
	c3.2,0.9,6.5,1.9,9.8,2.4C487.7,461.5,484.3,460.6,480.8,461 M675,459.1c-0.4,1.1,2,1.8,2.2,0.6C676.9,458.8,675.6,458.4,675,459.1
	 M493.7,458.9c-0.7-0.2-2.1,0.8-1.1,1.4C493.6,461.1,495.4,459.1,493.7,458.9 M696.4,457.7c4.8,1.5,9.6,3.2,14.3,5
	c-3.1-2.9-6.7-5.5-10.7-6.9C698.7,456.2,697.6,457,696.4,457.7 M458.6,462.7c4.7-1.7,9.4-3.5,14.3-4.9c-1-0.8-2-1.7-3-2.5
	C465.9,457.4,462.2,459.9,458.6,462.7 M758.4,455c5.4,4.6,11.2,8.8,15.4,14.5c2.2,3.4,5.9,4.8,9.2,6.8c-1.8-4.6-5.7-7.6-9.6-10.3
	c-4.5-3.1-8.1-7.2-12-11C760.7,454.1,759.4,455,758.4,455 M406.4,456.9c-6.1,7.1-15.4,11-20,19.5c3.3-2.1,7.5-3.3,9.6-6.9
	c3.7-6.3,10.6-9.6,15.3-15.1C409.4,454.5,407.4,455.1,406.4,456.9 M545.1,449.5c-2,0.1-2.7,2.1-3.8,3.4c0.1-1.3,0.3-2.6,0.4-3.9
	c-2.6,0.6-3.7,3-4.5,5.3c0-1.6,0-3.2,0-4.7c-5,0.8-10.5,0.5-15.1,3c0.2-0.9,0.5-1.7,0.7-2.6c-5.4,2.5-10.7,5.1-15.6,8.4
	c2.4,0.9,4.8,1.9,7.1,2.9c-2.9,0-5.9,0-8.2-2c-1.4-1.6-3.1-0.2-4.6,0.5c2.3,1.8,4.8,4,8.1,3.1c7.1-0.5,14.2-1,21.3-1.9
	c12.6-1.7,25.4-0.1,38-1.2c5.4-0.3,10.8,0.3,16.2,0.5c10-1.5,20.1,0.5,30.2-0.2c11.4-0.6,22.7,1.3,34.1,2.1
	c6.1,0.2,12.7,2.1,18.3-1.5c-0.9-1-1.8-2-2.8-2.8c-1.5,1.2-2.8,2.7-4.6,3.3c-1.8,0.2-3.6-0.4-5.3-0.5c2.5-0.7,4.9-1.4,7.4-1.9
	c-4.5-3.9-10.3-5.7-15.4-8.7c0.1,1.4,0.3,2.9,0.5,4.3c-0.6-1.2-1.2-2.4-1.8-3.7c-4.4-0.2-8.8-0.8-13.2-1.1c-0.1,1.2-0.2,3.6-0.3,4.8
	c-0.6-1.6-1.2-3.2-1.9-4.7c-0.9,0-1.7-0.1-2.5-0.1c0.1,0.9,0.3,1.8,0.4,2.7c-2.2-2.8-5.8-3.7-9.3-3
	C594.4,448.7,569.7,449,545.1,449.5 M644.8,447.2c-0.5,0.9,1.1,1.7,1.6,0.9C647,447.2,645.4,446.4,644.8,447.2 M523.2,447.2
	c-0.7,0.9,0.8,1.8,1.4,0.9C525.4,447.2,523.8,446.3,523.2,447.2 M720.8,445.7c5.5,7.7,12.8,13.9,17.8,22c-6.5-6.1-11.3-14-18.5-19.4
	c-4-0.4-8,0.3-11.9,0.5c-2.7,0.5-4.5,2.8-6.7,4.4c7.6,4.9,15.2,10.1,21.2,17c3.6,4.3,8.5,8.1,10.1,13.7c-0.9-0.6-1.9-1.3-2.7-2.1
	c-9-10.6-21.1-18.9-34.8-22.1c-3.6,1.2-6.8,3.6-10.7,4.2c-3.7,1.6-8.1-0.3-11.4,2.4c-3.8,2.3-7.6,4.7-11.4,7.2c5,2,9.5,5,13,9.1
	c10.8,11.4,16.2,26.8,18.2,42.2c1.1,10.3-2.1,20.2-5.1,29.9c2.5-2.8,5.1-5.6,7.1-8.8c2.3-6.3,1.6-13.1,1.1-19.6
	c-3-17.6-11.3-33.7-20.6-48.8c4.9,3.2,7.8,8.5,10.7,13.3c5.6,10.2,10.3,21,12.7,32.5c1.8,7.7,0.8,15.8-1.1,23.4
	c0.5-0.1,1.4-0.2,1.8-0.2c3-8.4,6.5-16.6,8-25.4c0.9-4.7,0-9.5-0.1-14.3c1.4,3,2.7,6.2,2,9.7c-0.2,10.3-5.1,19.7-8.2,29.3
	c5.5-5,9.8-11.3,12-18.5c3.3-8.4,0.9-17.9-2-26.1c-3.3-8.2-9.2-15-12.9-23.1c10.3,7.1,16.1,19.1,19.8,30.8c0.5-5.2,0.7-10.4,1-15.6
	c3.5,7.1,4.3,15.1,5.5,22.8c0.5-10-1.9-19.7-5.9-28.8c0.4,0,1.2,0,1.6,0c2.9,8.3,4.3,16.9,6.2,25.5c-0.4-8.9-2.5-17.6-4.7-26.2
	c5.7,8.7,5.3,19.6,9.9,28.8c-0.7-6.2-1.9-12.4-1.3-18.7c4.3,4,8.8,8.1,14.4,10.4c-0.7-1-1.4-1.9-2-2.9c0.7,0.3,1.4,0.7,2.1,1
	c0.1-0.8,0.1-1.7,0.2-2.5c0.8,1.2,1.5,2.3,2.3,3.5c0.1-1.3,0.4-3.8,0.6-5.1c2.1,1.3,4.2,2.7,6.3,4.2c3.6-4.4,1.2-10.2,1.5-15.3
	c1.9,4.3,3,8.8,4.9,13.1c0.1-6.2-1.4-12.1-2.5-18.2c3.3,6.6,5.1,13.8,9.2,20.1c-1.9-10.8-6.2-21-9.8-31.3
	c7.4,10.4,9.7,23.2,12.9,35.2c0-5.5-0.6-10.9-1.6-16.3c-0.8-2-0.3-4,0.4-5.9c1.7,9.1,5.6,18.4,3.1,27.8c-1.1,5.4-4,10.2-7.1,14.7
	c8.5,1.2,10.6-8.5,11-14.9c0.2-11.4-1.7-22.6-2.3-34c-0.8-1.9-2.8-3-4-4.6c0.5,1.6,0.9,3.2,1.4,4.8c-3.8-5.6-7.6-11.2-11.8-16.5
	c-5.5-6.6-12.7-11.5-19.9-16.1c-3.7-0.7-7.5-0.1-11.2-0.3c6.9,6.4,14,12.6,19.3,20.4C738.3,461.5,731.8,450.4,720.8,445.7
	 M466.3,448.6c3.6,3.9,7.6,8.5,13.3,8.4c-0.7-3.9-1.6-7.7-2.5-11.5C473.5,446.4,469.9,447.6,466.3,448.6 M421.4,468.3
	c5.4-7.7,12.9-13.6,19.2-20.6c-3.8,0.1-7.6-0.2-11.3,0.9c-13.8,6.8-23,19.6-31.3,32.1c0.3-1.5,0.6-3,0.9-4.4c-4.5,5-4,12.1-4.8,18.4
	c-1,9.6-2.3,19.8,1.1,29.1c1.1,3.8,4.7,5.8,8.6,5.6c-3.1-6-7.3-12-7.6-19c-0.9-8.8,3.3-16.9,4.3-25.5c1.3,7.8-2.5,15.2-1.6,23
	c3.9-11.3,5.3-23.8,12.5-33.7c-2.9,10.1-7.4,19.7-8.9,30.1c3.6-6.4,5.8-13.4,9-20.1c-1,6.3-3.1,12.5-3,18.9
	c2.2-4.2,3.5-8.8,5.2-13.2c0.1,4.3-0.9,8.5-1.6,12.8c0.6-0.6,1.3-1.3,1.9-1.9c0.3,1.4,0.6,2.9,0.9,4.3c2.2-1.4,4.4-2.9,6.8-3.9
	c0.2,1.9,0.4,3.7,0.6,5.6c0.7-1.4,1.3-2.7,2-4.1c0.2,0.4,0.5,1.3,0.6,1.7c0.6-0.3,1.3-0.7,1.9-1c-0.8,1.3-1.6,2.6-2.4,3.8
	c6.6-4.5,9.5-12.7,14.9-18.4c-0.6,2.9-0.6,6.3-2.8,8.6c-2.7,2.9-5.7,5.4-8.4,8.2c4.2-2.4,7.5-6,11.1-9c0.1,6.3-0.5,12.7-1.8,18.8
	c5-9,4.7-19.8,10.2-28.6c-2,8.8-4.6,17.6-4.9,26.7c3.1-8.8,2.5-19,7.7-26.9c-1.6,9.3-6.8,18.1-5.3,27.9c1.6-7.1,1.9-14.7,5.6-21.1
	c-0.2,6-0.9,11.9-0.6,17.9c3.9,6.5,7.3,13.9,14.1,17.9c-1.6-2.6-3.7-4.8-4.8-7.6c-0.2-1.5,0.4-3,0.7-4.5c3.3,2.2,6.7,4.3,10.3,6
	c-2.3-2.6-5.4-4.5-7.5-7.3c-1.4-1.8,0.6-4,1.1-5.8c3.1-6.1,4.9-12.7,8.3-18.7c-1.1,8.1-5.2,15.2-7.4,22.9c5.7-8.4,6.9-19,12.8-27.3
	c3.4-5.2,6.5-11.7,12.8-13.9c-5.2,6.3-11.1,12.8-12.5,21.2c-2.3,6.7-5.9,12.9-7.4,20c1.4-2.5,2.5-5.1,3.7-7.6
	c-0.1,1.2-0.1,2.4-0.2,3.7c3.5-8.4,7.4-16.7,12.3-24.4c2-3.3,4.6-6.2,7.7-8.4c-6.2,9.9-12,20.1-15.8,31.1
	c-3.9,11.3-7.8,23.7-4.2,35.5c0.9,4.5,4.8,7.4,7.5,10.8c-2-5.9-3.9-12-4.8-18.2c-1.4-14.9,2.6-29.9,9.7-43
	c4.8-8.8,12-16.2,21.1-20.4c-2.9-1.7-6-3.3-8.8-5.2c-2.1-1.4-4.2-3.2-6.8-3.2c-5.7-0.2-11.1-2-16.1-4.6c-2.1-1.2-4.3,0.2-6.3,0.8
	c-12.8,4.2-23.6,13.1-32.6,22.9c2.6-6.8,8.2-11.7,13.2-16.8c5.3-5.4,11.2-10.3,18.1-13.6c-2.7-2.4-5.4-5.6-9.4-5
	c-3.3,0.1-6.7-0.9-10-0.2c-6.6,6-11.6,13.7-18.4,19.6c5.3-8.1,12.5-14.6,18-22.6C437.8,450.7,430.8,461.2,421.4,468.3 M692.7,445.1
	c-1.5,3.9-2.3,8.1-2.7,12.3c5.2-1.3,10.3-3.9,13-8.7C699.5,447.5,696.1,446.3,692.7,445.1 M685.5,457.7c1-0.3,2.1-0.6,3.1-0.9
	c0.6-4.4,1.6-8.7,2.4-13C687.1,447.4,686.2,452.7,685.5,457.7 M540.1,445.8l0,0.7c29.8-1.5,59.6-0.5,89.4-0.4
	c-17.4-3.4-35.2-0.4-52.8-1.5C564.5,444,552.3,444.9,540.1,445.8 M481.6,457.2c0.8,0.2,1.5,0.4,2.3,0.5c-0.6-5.1-1.5-10.3-4.8-14.4
	C479,448.1,480.9,452.5,481.6,457.2 M682.3,441.8c-4.5,3.4-5.4,9.5-6.1,14.7c2.5,0.9,5,1.4,7.6,1.8c0.7-5.4,1.6-10.8,4.3-15.6
	C686.3,442.1,684.1,440.2,682.3,441.8 M481.8,442.9c2.2,5,3.2,10.3,4.5,15.5c2.3-0.5,4.5-1.1,6.8-1.7c-0.4-3.2-0.9-6.4-1.7-9.5
	c-1.1-2.8-3.7-4.8-5.7-6.9C484.4,441.2,483.1,442,481.8,442.9 M487,438.7c1.8,2.3,3.8,4.5,5.4,6.9c1.4,3.3,1.8,6.8,2.4,10.3
	c1.5-1.1,4.5-1.6,3.8-4C498.1,445.8,494.3,437.9,487,438.7 M670.8,454.1c1.5,0.6,3.1,1.1,4.6,1.7c0.6-3.4,0.1-7.2,1.9-10.4
	c1.5-2.5,3.5-4.8,5.2-7.2C674.7,438.9,670.8,447,670.8,454.1 M749.7,446.1c1.5,0.7,3.1,1.5,4.7,2.2c6.3-4.6,15.3-5.4,19.9-12.4
	C766.1,439.3,758.3,443.7,749.7,446.1 M632.8,436c-0.6,0.8,0.7,1.7,1.3,0.9C634.7,436.1,633.4,435.2,632.8,436 M395.4,436.1
	c4.4,6.7,13.7,7.1,19.6,12.1c1.6-0.7,3.1-1.4,4.7-2.1C411.3,443.5,403.5,439.4,395.4,436.1 M523.1,434.3c-0.2,2.4-0.4,4.7-0.2,7.1
	c1.3-0.5,2.6-1.1,3.9-1.7C525.7,437.8,524.4,436,523.1,434.3 M717.9,433.8c6.1,9.7,18.7,10.4,28.9,10.5c-4-4.6-10.9-3.5-16.3-4.4
	C726.1,438.4,722.3,435.5,717.9,433.8 M441.7,439c-5.9,3-13.7-0.3-18.6,5.2c10-0.5,22.4-0.3,28.1-10.3
	C447.9,435.4,444.9,437.4,441.7,439 M689.3,441.1c4.8,2,9.4,5.1,14.6,5.5c4.8-0.3,9.6-0.8,14.4-1.5c1.4-2.5-0.6-5.1-2.2-7
	c-4-5.3-11.5-4.5-17.4-4.5C695.3,435.5,692.5,438.6,689.3,441.1 M672.3,433.8c-5.8,2.7-8.1,9.7-8.2,15.7c1.3,1.4,3,2.3,4.6,3.2
	c0.6-3.8,0.9-7.9,3.5-11c2-2.2,4.5-3.8,7-5.4C677.2,434.9,675.1,432.7,672.3,433.8 M490.6,436.4c2.9,2.3,6.6,3.9,8.1,7.5
	c1.4,2.7,2.1,5.8,2.7,8.8c2.1-1.6,5.4-3.2,3.7-6.6c-0.5-5.1-3.3-10.9-8.5-12.4C493.9,432.6,492.4,435,490.6,436.4 M456.8,435.3
	c-2.7,2.4-6.9,4.9-6.4,9.1c3.6,2.6,8.5,1.3,12.6,2.2c6.3,0.8,11.8-3.3,17.3-5.5c-3.2-2.2-6.3-4.6-9-7.4
	C466.6,434.2,461.2,433,456.8,435.3 M687,433c-0.9,0.6,0.2,2.1,1,1.4C688.8,433.8,687.8,432.3,687,433 M714.8,432.5
	c1.2,0.1,2.3,0.1,3.5,0.2c0-0.4-0.1-1.2-0.1-1.6C717.1,431.5,716,432,714.8,432.5 M450.5,432.2c1.4,0.1,2.8,0.1,4.3,0
	C453.3,431.8,451.9,431.8,450.5,432.2 M663.7,439.2c3.3-3.1,6.8-5.9,10.3-8.6C669.3,431.6,665.5,434.7,663.7,439.2 M495.5,430.8
	c3.9,2.4,7.5,5.3,10.6,8.6C504.2,435,500.3,431.3,495.5,430.8 M709.4,430.5c2.6,1.4,5.7,1.8,7.5-1
	C714.4,429.8,711.9,430.1,709.4,430.5 M452.4,429.6c1,0.8,2,1.7,3.2,2.3c1.5-0.2,2.9-0.9,4.2-1.5C457.4,430,454.9,429.7,452.4,429.6
	 M658.2,441.9c0.2,2.3,2.2,4.1,3.4,6c0.5-3.8,0.3-7.9,2.3-11.3c1.7-3.7,5.8-5.1,8.7-7.8C665.4,429,660.4,435.6,658.2,441.9
	 M691.8,427.8c-0.4,1-0.8,2-1.1,3c0.5-0.1,1.6-0.4,2.1-0.5C692.5,429.4,692.1,428.6,691.8,427.8 M484.7,427.8
	c-0.3,2.2-0.6,4.4-0.8,6.6C485.4,432.5,485.3,430.1,484.7,427.8 M478,431.8c0.1-1.4,0.1-2.8,0-4.3C477.6,429,477.6,430.4,478,431.8
	 M684.4,427.1c0.1,2.4,0.4,4.8,0.8,7.2C685,431.8,684.9,429.5,684.4,427.1 M497.3,429.5c3.4,1.9,6.9,4.1,8.7,7.8
	c1.8,3.2,1.7,7.1,1.8,10.7c2.7-3.9,6-7.5,7.7-12c-0.9-4.1-4.4-7.5-8.1-9.2C503.7,425.3,499,425.4,497.3,429.5 M795.3,421.8
	c-3.3,1.2-4.3,5.1-6.3,7.6c-3.8,4.7-8.3,9-11.3,14.3c-2.9,5.1-8.5,7.1-13.6,9.1c8.8,3.9,17.3,10.4,20.3,19.9
	c2.2,9.1,3,18.4,4.4,27.7c1.8-7.5,3.2-15,3.9-22.7c1,5,2.1,10,3.4,14.9c1.2-6-1-12.5,2.9-17.8c1.5,5.4,2.6,11,4.4,16.4
	c0.3-8.6-5.6-18-0.9-26.1c2.6,8.1,2,16.7,3.6,25c0.9-4.5,0.6-9.2,0.9-13.7c0.8,2.1,1.6,4.2,2.3,6.3c-0.1-5.9-1.2-11.8-1.6-17.7
	c1.8,3.3,2.7,7,3.6,10.7c1.1-0.9,2.2-1.8,3.4-2.7c-0.1,4.7-0.7,9.3-2.4,13.7c2.5-3.3,4-7.1,5.4-10.9c0.3,1.6,0.7,3.3,1.1,4.9
	c2.5-4.9,4.1-10.1,5.4-15.5c1.4,4.7,2.1,9.6,4,14.2c0.4-10.2-3-19.9-3-30.1c4,8.2,5.3,17.4,9.6,25.5c-0.6-4.4-1.7-8.6-2.4-12.9
	c2.1,7.1,6.3,13.9,5,21.6c-2.4,4.7-8.1,6.3-11.4,10.2c-2,2.8-3.5,5.9-4.9,9c6.3-5.1,12-10.9,16.9-17.3c5-7.4,5.1-16.9,3.6-25.3
	c-4.7-8.5-11.2-15.9-17-23.6c-3.3-5.9-10.7-6.4-14.9-11.3C806,421.1,800.2,421.2,795.3,421.8 M362.2,423.2
	c-3.8,3.1-7.2,6.8-11.8,8.6c-3.2,1.2-4.8,4.3-6.8,6.8c-5.1,7.3-11.6,13.6-15.6,21.7c-0.4,6.2-0.7,12.7,0.6,18.8
	c3.8,9.7,11.8,16.8,19.6,23.2c-1-2.3-2.1-4.6-3.4-6.7c-2.7-6.4-13-6.6-12.8-14.6c0.5-6.8,3.4-13.3,5.5-19.7c-0.9,4.5-1.9,9-2.3,13.6
	c3.7-8.3,5.4-17.3,9.4-25.5c-0.5,10.1-3.5,19.9-2.8,30.1c1.4-4.7,2.4-9.5,3.5-14.3c1.9,5.4,3.3,11,5.9,16.2c0.2-1.9,0.4-3.8,0.7-5.7
	c1.5,3.9,3.3,7.8,6,11.1c-2.2-4.2-3.1-8.9-2.9-13.6c1.2,0.7,2.4,1.6,3.6,2.4c1-3.7,2-7.4,3.3-11.1c-0.6,5.8-1.4,11.6-1,17.5
	c0.6-1.9,1.1-3.8,1.6-5.7c0.3,4.7,0.6,9.5,1.2,14.2c1.7-8.4,1.4-17.2,3.6-25.5c0.9,2.2,1.6,4.4,2.2,6.7c-0.8,6.8-3.2,13.3-3.4,20.1
	c1.8-5.6,3.3-11.3,4.8-16.9c4,5.1,1.1,11.3,2.7,16.9c1.5-4.7,2.5-9.5,3.8-14.3c0.6,7.4,1.7,14.9,3.4,22.1c2.4-10,2.1-20.5,5.7-30.2
	c3.5-8.1,11.4-12.9,18.9-16.8c-5-2.2-10.7-4.2-13.6-9.2c-3.4-5.4-7.8-10.1-11.6-15.2c-1.9-2.5-3.1-6-6.5-6.7
	C369.8,421.7,365.6,421.3,362.2,423.2 M678.7,420.8c-0.1,2.3-0.1,4.6,0.1,7c0.8,1.6,2.2,2.8,3.5,4c-0.4-3.6-0.8-7.2-1.4-10.8
	C680.4,420.9,679.3,420.8,678.7,420.8 M488.9,420.8c-0.7,3.7-1.6,7.3-1.9,11c3.9-2.3,4.4-6.4,3.9-10.6
	C490.4,421.1,489.4,420.9,488.9,420.8 M662,416.8c0.9,0.4,1.8,0.8,2.7,1.2c-4.2,1.2-8.8,2-11.8,5.5c-2.5,2.4-3.2,6-5,8.9
	c-4.4,2.7-9.9,4.1-12.9,8.5c0-0.9-0.1-1.7-0.1-2.5c-1,0.8-1.9,1.5-2.8,2.3c-1.4-2.3-2.9-4.5-4.5-6.6c0.7,2.6,1.5,5.2,2.3,7.8
	c-1.9-2.8-3.9-5.5-6.3-7.9c0.6,2.3,1.4,4.5,2.2,6.7c-2-2.2-4-4.5-6.1-6.6c0.3,1.7,0.7,3.4,1.1,5c-1.7-1.8-3.4-3.6-5.8-4.5
	c0.1,1.2,0.2,2.5,0.4,3.8c-1.7-1.4-3.3-2.8-5.2-3.9c-3.5,0.5-6.3,2.9-9.8,3.3c-4.7,1.1-9.3-0.7-14-0.5c-6.2-0.5-12.4,1.9-18.5,0.1
	c-2.7-0.7-5-2.5-7.2-4.2c-2,1.6-3.9,3.2-5.8,4.8l-1-3.1c-2.6,0.4-3.7,3-5.2,4.8c0.4-2,0.8-3.9,1-5.9c-1.8,1.8-3.4,3.8-5.1,5.8
	c0.5-1.9,0.9-3.9,1.2-5.8c-2.1,2.2-3.9,4.8-5.7,7.3c0.6-2.4,1.3-4.8,1.7-7.2c-2.1,2.3-3.4,5.1-4.9,7.8c-0.1-1.9-0.2-3.9-0.3-5.7
	c-1-0.3-2.1-0.5-3.1-0.8c0.2,1.8,0.4,3.5,0.6,5.3c-0.8-1.5-1.5-3-2.2-4.6c-1.1,0-3.3-0.1-4.4-0.2c2.5,2.8,5,5.8,7.1,9
	c2.9,0,5.6-1,8.4-1.4c-1.8-0.2-5.3-0.6-7-0.8c28.8-3.4,57.8-1.6,86.7-3c0,0.3,0,1,0,1.4c-6,0-11.9,0.1-17.9,0.3
	c10.3,1.3,20.6,1.7,30.8,3.5c1.4-4.1,5.8-5.6,8.4-8.8c0.6,1.4,1.3,2.9,2,4.3c1.1-1.2,2.1-2.4,3.4-3.3c5.4-4,9.6-9.4,15.3-13.2
	c-3.8,4-7.8,7.7-11.2,12.1c0.5,0.7,1,1.3,1.5,2c4.3-6.6,10.4-12.3,18.3-13.9C670.5,420.3,666.7,417.4,662,416.8 M651,417.1
	c-0.2,1-0.5,3-0.7,4c2-1.5,3.9-3.2,5.9-4.8C654.5,416.7,652.7,416.8,651,417.1 M656.5,416.1c2.9-0.8,5.8-2,8.8-1.2
	c4.9,1.4,8.4,5.3,11.9,8.8c-0.5-2.5-1.2-5.2-3.2-7c-2.5-2.1-4.2-6.5-8.2-5.6C661.9,410.7,659.4,414,656.5,416.1 M500.4,411.2
	c-1.9,2.3-4,4.4-5.9,6.7c-1.8,2.1-1.8,5-2.5,7.6c3.7-4.9,7.9-9.4,13.5-12.1c-2.1,3.2-4.4,6.3-7,9.1c4.3-1.1,9.2-1.1,13.1,1.2
	c5.1,3.4,5.6,10.3,10,14.2c-0.3-3-0.6-6-1.6-8.9c-1.9-3.4-4.9-6.1-7.5-9c2.9,1.9,5.7,3.9,8.4,6.1c1.5-3.5,2.5-7.2,3-11
	c-1.2,1.1-2.5,2.1-3.7,3.2c-4.7-1.5-9.4-2.8-14.2-4c0.4-1,0.8-2.1,1.2-3.1C505.6,411,502.1,411.2,500.4,411.2 M598.4,401.1
	c-0.7,5-1.4,10.1-1.2,15.2c0.5,5.1-1.7,10-1.4,15.1c5,0,9.9-1.5,14.8-2.4c6.7-0.6,13.6-0.8,20.3,0.1c1.4-2,2.7-3.9,4.2-5.8
	c-0.9,3-2.8,6.1-1.8,9.4c2.1-0.7,4.4-2,6.7-1.4c3.4,0.6,6.9-2.5,6.9-5.9c-0.2-7.8-0.6-15.5,0.1-23.3
	C630.8,404.5,614.6,402.2,598.4,401.1 M605.9,389.7c-3.5,2.5-6,6-8.5,9.4c16.5-0.2,33,0.5,49.6,0.2c-0.2-1.5-0.5-3.1-0.8-4.6
	c-5.3-1.6-10.5-3.7-15.9-4.9c-3.8-0.8-7.2,0.9-10.5,2.6C615,392.8,610.9,389,605.9,389.7 M612.4,388.3c2.9,1.9,6.3,1.6,9.5,0.8
	C618.9,387.8,615.5,388.4,612.4,388.3 M527.9,392.3c-3.8,1.6-1.5,5.9-1,9c-1.1-1.7-2-3.5-2.8-5.3c0.4,6,1.7,12,2.5,18
	c0.8,6-3.5,11.5-1.7,17.5c5.3-0.7,10.6-1.1,15.9-2.1c3.8-0.5,7.7-1.8,11.5-0.9c1.6-0.3,3.9,1.6,5.5,0.3c2.8-2.4,3.9-6,5.3-9.3
	c-0.4,2.9-0.9,5.8-1.8,8.6c1.5,1.1,2.7,2.5,4.5,3.2c6.2,0.7,12.4-0.3,18.5-1.2c2.9,0.2,5.8,0.8,8.7,1.3c0.4-2.5,0.6-5.1,1.3-7.5
	c3.4-8,1.8-17,2.3-25.4c1.2-3,4-5.1,6-7.7c-4,2.1-8.7,4.8-9.5,9.7c0.1,5.6,1.6,11.2,2,16.8c-1.9-5.1-2.5-10.5-3.2-15.9
	c-20.2-2.3-40.4,1.3-60.6,0.3c19.6-1.7,39.3-3.6,59-2.4c3.2-4.3,7.6-7.4,12.2-10.1c-6.4-0.1-12.7,1.3-19.1,1
	c-6.9,0.1-13.4-2.5-20.3-2C551.3,388.5,539.1,388.4,527.9,392.3 M628.1,378.5c-0.3,1-0.6,2.1-1,3.1c4.3,2.2,9,3,13.7,3.8
	c-1.6-2.5-3.1-5.2-5.4-7.1c0.3,0.8,0.5,1.6,0.8,2.5C633.8,379.4,630.9,378.6,628.1,378.5 M582.8,377.9c0.1,1.8,0.3,3.7,1.9,4.9
	C584.3,381,583.7,379.4,582.8,377.9 M639.4,376.8c3.5,6.9,10.5,11.1,17.4,14.1c-3.9-3-7.6-6.1-10.7-9.9
	C644.6,378.6,641.9,377.6,639.4,376.8 M571.5,382.8c2-1.6,2.5-4.1,2.6-6.5C572.2,377.9,571.5,380.4,571.5,382.8 M524.4,379.6
	c-3,4-6.7,7.4-10.5,10.6c6.7-2.9,13-6.9,16.5-13.5C528.3,377.4,525.9,377.9,524.4,379.6 M576.8,381.9c1.9-1.5,3.4-3.5,4.2-5.7
	C579.5,378,578.1,379.9,576.8,381.9 M788.9,376c-0.6,0.8,0.1,2.1,1,2.4C791.2,378,790.1,375.5,788.9,376 M379.7,376
	c-0.9,0.5-0.3,2.4,0.8,1.7C381.4,377.2,380.8,375.3,379.7,376 M679,367c-0.5,1-1,2.1-1.4,3.2c3.5,1.6,6.9,3.2,10.4,4.9
	c0.2-0.4,0.7-1.3,0.9-1.7C685.8,370.9,682.4,368.9,679,367 M480.6,375.2c4.1-1.3,7.9-3.6,11.8-5.5c-0.7-0.9-1.4-1.8-2.1-2.7
	C486.9,369.4,482.3,371,480.6,375.2 M531.1,368.7c-2.2,2.1-3.5,5.1-4.8,7.8c5-2.9,9.4-7,14.9-9c3-1.3,6.5-2.4,8-5.6
	C543.1,364,537,366.2,531.1,368.7 M620.1,361.4c1.9,3.1,5,5.3,8.5,6.2c5.7,1.7,9.9,6,15,9c-1.5-2.6-2.5-5.8-4.9-7.8
	C632.5,366.3,626.2,364.2,620.1,361.4 M622.4,360.7c-0.6,0.7,0.7,1.7,1.3,1C624.2,360.9,622.9,360,622.4,360.7 M546.2,360.7
	c-0.7,0.8,0.7,1.7,1.2,0.9C548.1,360.8,546.8,359.9,546.2,360.7 M681.5,357.4c-1.2,2.8-2.2,5.7-3.2,8.5c1.2-1.8,2.3-3.6,3.5-5.4
	c-0.5,2-1.1,3.9-1.8,5.8c3.2,1.7,6.4,3.5,9.5,5.3c0.4-2.7,1.4-5.4,1-8.2C688,360.9,684.5,359.4,681.5,357.4 M479,363.2
	c0.4,2.8,0.8,5.7,1.3,8.5c3-1.9,6.2-3.6,9.3-5.4c-0.7-2.2-1.4-4.3-2-6.5c1.2,2.1,2.3,4.3,3.7,6.4c-0.9-3-2-5.8-3.1-8.7
	C485.1,359.4,482,361.3,479,363.2 M676,365c2.4-2.6,4-6,4.4-9.6C677.5,357.7,677,361.7,676,365 M489,356.3c1,3.6,3,6.8,5.2,9.7
	c-1-3.4-2.1-6.7-3.3-10.1C490.4,356.1,489.4,356.3,489,356.3 M682.4,353.9c-0.8,0.3-0.5,1.9,0.4,1.6
	C683.7,355.2,683.3,353.6,682.4,353.9 M684.5,351c-0.3,2-0.6,4-0.8,6c2.2,1.3,4.4,2.6,6.7,3.8C689.2,357.1,687,353.9,684.5,351
	 M479.5,360.9c2.2-1.4,4.6-2.6,6.5-4.3c-0.3-1.4-0.8-4.2-1.1-5.7C482.6,353.9,480.6,357.2,479.5,360.9 M621.3,350.4
	c-0.3,2.4-0.6,4.9-0.8,7.4c2.7,0.7,5.4,1.1,8.1,1.6c5.6,2.6,11.2,5.4,16.1,9.2c3.3,4.6,5.7,9.9,9.2,14.4c-2.1-4.4-4.8-8.5-6.5-13.1
	c3,1.8,3.8,5.4,5.5,8.2c2,4,5.6,6.8,8.9,9.6c-3.3-5.1-7.4-9.7-9.4-15.5c7.2,3.1,10,11.6,16.8,15.4c-2.9-4.1-6.2-8-8.8-12.3
	c4.1,2,6.3,6.5,10.5,8.2c2.3,1,4.8,0,7.1-0.3c0.6,1,1.2,2,1.8,3.1c3-2.6,5.3-5.9,7.2-9.4c-3.4-2.1-6.9-4.4-10.9-5.3
	c-4.9,0.8-9.9,3.1-14.9,1.2c-5.8-1.9-11.8-4.3-16.4-8.4c-2.6-2.6-1.8-6.5-0.6-9.5c-4-0.9-7.8-2-11.7-3.2c2.8,2.4,5.7,4.7,8.3,7.2
	C634,357,629.5,349.1,621.3,350.4 M540,352c-3.9,2.4-7.3,6-12,6.9c2.7-2.8,5.9-5,8.9-7.5c-3.8,1.4-7.7,2.6-11.6,3.4
	c0.6,3.2,1.9,7.2-1.1,9.6c-4.6,4.5-11,6.6-17,8.5c-5,1.5-9.8-1.4-14.8-1.5c-3.6,1.3-6.8,3.6-10.1,5.6c2.1,3.1,4.3,6.2,6.6,9.2
	c1-0.9,1.8-1.9,3-2.5c2.9-0.4,6.1,0.8,8.6-1.1c3-2.4,4.9-6.2,8.7-7.4c-2.6,4.4-5.8,8.5-9,12.6c5.1-3.4,8.6-8.6,12.7-13.1
	c1.2-1.2,3-1.7,4.5-2.4c-2.5,5.5-6,10.5-9.6,15.3c4.7-3,8.3-7.5,10.5-12.6c0.8-2.2,2.2-4.1,4.2-5.5c-2,5-5.1,9.5-7.3,14.3
	c5.8-5.9,7.3-15.5,15.5-18.8c4.2-2.1,7.9-5.8,12.8-5.9c1.9-0.2,3.7-1,5.6-1.6c-0.3-2.2-0.6-4.5-0.8-6.6
	C545.5,351.3,542.4,350.4,540,352 M777.2,350c3.1,3.1,6.1,6.4,10.2,8.1C788.3,351.8,781.2,351.5,777.2,350 M585.3,349.9
	c0.2,9.6-1.2,19.5,1.4,28.8c0.9,3.1,4.6,3.3,7.2,3.2c10.6-0.4,21.1-0.2,31.7,0.2c0.3-1.1,0.6-2.1,0.9-3.2c-12.4,0-25,0.1-37.2-2.7
	c3.3-0.5,6.6,0,10,0.3c10.6,1.2,21.3,1.8,32,1.5c-4-1-8.1-1.7-12-3.2c-5.2-2.3-9-6.6-13.3-10.2c-3.5-3.2-4.7-7.7-5.1-12.2
	C595.9,350.9,590.6,350.3,585.3,349.9 M569,352.6c-2.2,3.1-1.2,7.7-4.1,10.4c-4.5,4.5-9.4,8.7-14.9,12c-5,2.7-11,2-16.2,4.2
	c-2.6,1.3-4,4.1-5.6,6.4c7.1-0.9,13.9-3.8,21.2-3.8c7.1,0.1,14.2-0.4,21.2-0.6c0.3-1.6,0.5-3.1,0.7-4.7c-1.1,1.4-2.1,2.9-3,4.4
	c0.2-1.5,0.4-3,0.5-4.5c-2,0.7-3.4,2.2-4.7,3.7c0.2-1,0.5-2.1,0.7-3.1c-2.5-0.1-7.4-0.3-9.9-0.4c7.7-0.7,15.4-1.8,23.1-1.1
	c-2,1.7-3.3,3.9-3.8,6.5c2.8-3,6-6.2,7-10.3c0.6-7.2,0.3-14.4,0.5-21.6C577.5,350.7,573,351,569,352.6 M610.4,350
	c1.7,4.7,5.3,8.4,8.7,12c0.1-4.1,0.2-8.2,0.2-12.3C616.4,349.8,613.4,349.8,610.4,350 M550.1,349.8c0.4,3.9,0.6,7.8,0.8,11.7
	c3.5-2.8,5.8-6.7,8-10.6C556,350.1,553.1,349.6,550.1,349.8 M680,355.6c2.1-2.1,2.8-5,2.9-7.9C681.3,350.1,680.2,352.8,680,355.6
	 M487,348c-0.1,1.1-0.1,2.2-0.1,3.4c-0.5-0.4-0.9-0.8-1.4-1.2c0.4,1.6,0.8,3.1,1.2,4.7c0.1-1,0.2-1.9,0.4-2.9c0.7,1.2,1.3,2.4,2,3.6
	C489.6,352.9,488.4,350.3,487,348 M565.5,348.2c0.1,0.4,0.4,1.2,0.6,1.6c6.4-0.3,12.8-1.4,19.3-1.2c8.2,0.7,16.5,1.4,24.7,0
	C595.3,345.9,580.3,348.6,565.5,348.2 M506.6,347.5c0,2.5,0,7.4,0,9.8h0.7c0-2.5,0-7.4,0-9.8H506.6 M610.3,346.9
	c-0.3,1.1,0,1.4,1.1,1.1C611.7,346.9,611.4,346.6,610.3,346.9 M686.2,351.4c1.5,2.5,3.2,4.9,4.7,7.3c-0.7-5.3-1.7-10.6-3.7-15.6
	C686.3,345.7,684.4,348.8,686.2,351.4 M479,358.1c1.8-2.7,3.7-5.3,5.2-8.1c-0.3-2.3-0.8-4.6-1.3-6.8C480,347.6,479.4,353,479,358.1
	 M684.7,349.1c0.7-2.9,1.4-5.8,0.8-8.7C683.6,342.9,682.3,346.4,684.7,349.1 M485.8,349.1c1.5-2.9,0.1-6-1.4-8.6
	C484.1,343.4,484.5,346.4,485.8,349.1 M614.8,339.8c-0.9-0.1-1.1,1.6-0.1,1.6C615.7,341.4,615.8,339.8,614.8,339.8 M554.1,339.4
	c-0.8,0.6,0,2.1,0.9,1.6C555.8,340.5,555,338.9,554.1,339.4 M685.5,334.4c3.6,4.9,6.9,10.2,8.8,16.1c1.9,13.4-0.5,28.6-9.9,39
	c-6,5.5-14.5,3.5-21.8,5.5c2.8,3.5,7.5,3.2,11.6,3.8c-4.7,1.8-10,1.2-14.1-1.9c4.4,5.4,11.9,6.4,17.9,9.3c-1.5-0.1-2.9-0.2-4.4-0.3
	c2,2.9,4,6,7.2,7.8c3.7,1.5,7.7,2.5,11.2,4.6c4.5,2.4,7.8,6.6,12.1,9.2c3.3,0.5,6.7-0.5,10.1-0.5c-7.7-7.1-18.7-8.3-27.2-14.2
	c-4.7-2.8-10.7-8-8.3-14.1c-0.6,0.1-1.2,0.2-1.7,0.3c5.4-4,10.7-8,14.7-13.5c-1.1,2.5-2.2,5-3.3,7.6c8-6.1,10.6-16.2,14.9-24.8
	c-0.7,3.8-1.5,7.7-2.4,11.5c-1.5,6.6-5.1,12.4-6.1,19.1c9-9.3,10.2-22.4,14.1-34.1c-0.1,12.5-3,24.9-6.9,36.7
	c1.2,0.1,2.4,0.3,3.6,0.5c1.8-2.3,4-4.5,7.1-3.7c-2.5,2.5-5,5.1-7.4,7.7c3.9-1.4,7.2-4,10.8-6.1c-3.3,3.3-7.2,5.8-11,8.6
	c4.6-0.7,8.8-2.6,12.9-4.6c0.3,1.4,0.7,2.8,0.7,4.3c-0.6,1.6-1.9,2.9-2.9,4.3c2.4-1.5,5.2-2.7,7.1-4.8c4.1-5.1,7-11.1,10.7-16.5
	c-1.9,9.4-6.4,18.4-13.8,24.7c3.8-1.6,7.7-3.6,10.3-7c4.4-4.7,5.4-11.4,9.3-16.5c-0.8,6.4-2.9,12.9-7.7,17.5c1.3-0.7,2.6-1.3,3.9-2
	c-0.2,1.3-0.4,2.6-0.6,4c1.5-3.9,3.6-7.6,6.2-10.9c-0.6,3.2-1.3,6.4-1.7,9.6c3.1-5.3,3.5-11.9,7.2-16.9c-0.7,5.8-2.3,11.5-4.3,17
	c1.3,0.6,2.7,1.3,4,2c-2.6,2.8-5.6,5.2-8.3,7.8c3.8-0.5,6.6-3,9.3-5.4c0.2,0.8,0.4,1.7,0.6,2.5c-4.7,2.3-9.5,4.5-14,7.3
	c5.6-0.8,10.9-2.9,16.2-4.5c-4.5,3-9.9,4.3-14.6,6.9c4.5-0.1,8.7-1.6,13.1-2.4c-1.1,0.6-2.2,1.1-3.3,1.7c0.1,0.5,0.2,1.4,0.3,1.8
	c4.6-0.7,8.3-4.3,13-4.8c4.8-0.9,8.8-4,13.2-5.9c-5.1,8.6-14.6,13.2-24.2,14.3c5.5,0.4,11-0.6,15.9-3.1c-0.4,0.7-0.7,1.4-1.1,2.1
	c5.5-3.4,10.5-7.3,15.8-11c-0.7,6.3-6.4,9.7-10.3,13.9c3.9-2.7,7.4-5.8,11.1-8.9c-3.4,4.6-7.4,8.6-11.4,12.5
	c6.3-2.6,11.3-7.3,16-12.2c-1.8,4.7-6.1,7.6-8.4,12c4.3-2.5,7.5-6.3,10.5-10.2c3.7-4.6,7.5-9.6,8.6-15.6c0.5-7.3,0.9-14.9-1.2-22
	c-1.9-4.7-4.4-9.2-6.3-13.9c-1.6-4.6-7-5.9-10.6-8.5c1.2,7.5,2.1,15,1.8,22.6c-1.4-9-2-18.3-5.3-26.9c-1.9-1.8-4.5-2.6-6.7-3.8
	c1.9,10.1,3,20.4,2.1,30.7c-1.5-10.1-0.6-20.8-4.1-30.5c-5.8-3.4-12.2-6.6-15.4-13c-6.4,0.7-13.2,1.4-19.1-1.7
	c2.7,6.7,4.7,13.7,5.3,20.9c-3-8.3-3.2-19.3-11.8-24.1c4.9,10.9,9.4,22.5,9.2,34.7c-3.2-11.6-4.5-24.7-12.6-34.1
	c-5.2-2.7-11.8-1.2-16.8-4.7c3.5,4.9,6.2,10.3,8.3,15.9c0.9,2.2-0.8,4.3-1.3,6.4c-1.2-4.5-2-9.1-3.7-13.4c-1.8-4.7-5.7-8.1-9.2-11.6
	c-1.2,0.2-2.3,0.4-3.5,0.7c6.7,7.6,12.4,17.2,12,27.6c-2.8-8.2-4.7-17.1-10.5-23.9C692.9,335.5,688.7,335.5,685.5,334.4
	 M477.3,336.6c-2.4,1.5-3.9,4.1-5.3,6.4c-3.6,6.1-5.8,12.9-7.5,19.8c-0.3-10.5,5.1-20.5,12.2-28c-2.6,0.5-5.5,0.8-7.3,2.9
	c-5.7,5.4-7.4,13.3-8.9,20.7c-0.4,0.1-1.1,0.2-1.4,0.3c-1.6-8.1,4.1-15.3,8.2-21.7c-5,4.1-11.7,2.2-17.2,5c-2.5,2.1-3.6,5.3-5,8.1
	c-3.7,8-5.1,16.7-7.4,25.2c0.1-11.9,4.1-23.4,9.4-33.9c-2.6,1.5-5.2,3.3-6.5,6.2c-2.8,6.1-3.9,12.8-5.9,19.2
	c0.7-7.7,2.6-15.4,5.9-22.4c-5.8,4.1-13.2,1.6-19.8,2c-2,6.1-7.9,8.8-13.1,11.6c-2.6,1.2-2.9,4.6-3.5,7c-1.4,7.8-1.5,15.7-2.2,23.5
	c-0.9-9.8,0.5-19.5,2-29.2c-2.4,1.2-5.5,1.8-7,4.2c-2.9,8.5-3.8,17.5-5.4,26.2c-0.1-7.6,1.2-15,2.5-22.4c-3.8,2.3-8.8,3.7-10.8,8.2
	c-3.2,7-7.6,13.9-7.7,21.8c-0.1,5.7-0.5,11.5,0.6,17.1c3.9,8.8,10.1,16.8,18,22.5c-2.3-4-5.7-7.3-7.9-11.4c4.7,4.5,9.5,9.1,15.5,12
	c-3.8-3.8-7.3-7.8-10.4-12.2c3.6,2.9,6.8,6.1,10.4,8.9c-3.5-4.6-9.2-8-10.2-14.1c5,3.3,9.5,7.4,15,9.8c4.9,1.5,10.1,1.7,15.2,1.9
	c-4.3-1.2-8.8-1.5-12.7-3.8c-4.6-2.5-8.3-6.3-11.4-10.5c4.5,2.1,8.8,4.5,13.2,6.8c-0.4-0.8-0.7-1.5-1.1-2.2c4.8,2.1,9.3,5,14.5,5.9
	c-0.9-1.2-1.8-2.2-2.7-3.3c3.9,1.4,8.1,2.4,12.3,2.5c-4.5-2.6-9.8-3.7-14-6.7c5.5,1.4,10.6,4.6,16.5,4.2c-4.7-2.6-9.7-4.4-14.2-7.2
	c0.1-0.8,0.2-1.6,0.3-2.4c3,2.2,5.9,4.8,9.7,5.3c-2.8-2.5-5.8-4.9-8.8-7.3c1.3-0.9,2.7-1.7,4-2.5c-1.7-5.4-3.9-10.7-3.7-16.4
	c2.6,5.3,4.2,11.1,6.6,16.5c-0.5-3.1-1.1-6.1-1.5-9.2c3,3.1,4.7,7.1,6.5,11c-0.3-1.6-0.7-3.3-1-4.9c1.2,0.8,2.4,1.5,3.7,2.3
	c-3.9-5.1-6.9-11-7.1-17.5c4.5,9.2,8.7,20.6,19.7,23.6c-3.1-3.2-6.5-6.2-8.8-10c-2.8-4.8-4.4-10.1-5.8-15.4
	c3.8,5.2,6.3,11.2,10.2,16.3c2.3,2.4,5.2,4.1,8,5.8c-2.5-2.5-3.5-5.6-2-8.8c4,2.3,8.2,4.7,12.9,4.8c-3.8-2.8-8.3-5-11.5-8.6
	c3.9,1.3,6.9,4.4,10.6,6.2c-2.2-2.7-4.5-5.2-6.7-7.9c2-0.2,4,0.1,5.1,1.9c1.2,2,3.6,1.6,5.5,1.7c-4.3-11.9-7.5-24.4-7-37.1
	c3.6,11.7,4.9,25.2,14.1,34.2c-3.7-10.3-7.6-20.5-9.1-31.4c4.6,8.8,6.8,19.5,15.4,25.5c-1.4-2.4-2.6-4.9-3.3-7.6
	c3.6,5.3,8.7,9.1,13.4,13.3c0.4,3.8-1,7.8-4,10.2c-9,9-22.7,9.9-32.2,18c3.4,0.2,7,1.4,10.4,0.6c3.9-2.6,6.9-6.2,10.9-8.6
	c3.5-2.8,8.2-3.1,12.1-5.1c2.9-2,5-4.9,7.2-7.6c-1.5-0.1-3-0.3-4.5-0.4c6.3-2.4,13.8-3.7,18.3-9.1c-3.9,3.4-9.3,4-14,1.9
	c4-0.7,8.6-0.3,11.6-3.5c-5.2-1.1-10.6-1.1-15.8-2.3c-5.1-1.1-8.7-5.5-11.1-9.9c-4.7-9-7-19.5-5.5-29.6c0.8-7.2,5.5-13.2,9.5-19
	C482.1,335,479.6,335.5,477.3,336.6 M659.4,332.1c-1,0-1.2,1.8-0.2,1.8C660.2,333.9,660.5,332.1,659.4,332.1 M771.1,325.9
	c1.2,1,2.4,1.9,3.7,2.7C773.7,327.6,772.4,326.7,771.1,325.9 M610,335.2c2.6,3.1,6.5-0.2,9.5-0.9c-0.8-3-1.6-5.9-2.4-8.9
	c-1.4,0.9-3.8,1.2-3.9,3.3c-0.2,2.2,0.2,4.4,0.3,6.6c-1.8-3-2.4-6.4-2.7-9.8C609.1,328.3,607,332.6,610,335.2 M552.2,325.4
	c-0.6,3.1-1.3,6.1-2,9.1c2.3,0.7,4.4,1.7,6.8,2c2.4,0,3.9-2.4,4.5-4.4c0.7-2.3-1.4-4.1-2.6-5.9c-0.8,3-1.6,6.1-2.6,9.1
	c-0.1-2.6,0-5.2-0.5-7.7C555,326.5,553.4,326.1,552.2,325.4 M395.2,328.6c1.2-0.9,2.4-1.9,3.5-3
	C397.4,326.6,396.2,327.6,395.2,328.6 M618.6,324.7c0.4,3.2,0.9,6.4,1.4,9.7c0.5,0,1.6,0,2.1,0.1c-0.7-3.3-1.6-6.5-2-9.8
	C619.8,324.5,619,324.6,618.6,324.7 M549.5,324.5c-0.5,3.2-1.1,6.4-1.9,9.6c0.4,0.1,1.3,0.2,1.7,0.3c0.7-3.1,1.4-6.3,2-9.4
	C550.8,324.8,549.9,324.6,549.5,324.5 M664.9,324.2c-2.1,4.6-3.1,9.7-5.6,14.1c-3.3,6.7-8.5,12.2-12.2,18.6
	c-1.8,5.2,3.9,7.2,7.6,8.5c-1.8-3-5.9-5.6-4-9.5c3-7.7,8.3-14.2,12.9-21c-0.3,7.8-1.2,15.6-0.6,23.4c0.3-4.1,0.4-8.2,0.5-12.3
	c0.9,4.6,1.9,9.2,3.5,13.6c-0.7-5.2-2-10.4-1.6-15.7c2.7,4.7,3,11.1,8,14.1c-1.7-2.4-3.1-5.1-3.8-7.9c2.4,2.3,4.8,4.7,7.3,7
	c-1.1-1.8-2.1-3.6-3.2-5.3c1.1,0.4,3.3,1.3,4.4,1.8c1.1-2.7,2.2-5.6,1.9-8.6c1.4-2,2.6-4,3.9-6.1c-5.4-4.1-10.1-9-15.6-12.8
	c-0.1,0.5-0.3,1.4-0.4,1.8C666.9,326.6,666.6,323.7,664.9,324.2 M486.6,337.9c-0.9,2.7,1.4,4.9,2.5,7.1c0.7,2.8,1.4,5.6,2.5,8.3
	c1.5-0.6,3.1-1.3,4.6-1.9c-1.3,2-2.7,4.1-3.9,6.2c3.1-2.4,5.4-5.6,8-8.4c-1,3-2.4,5.8-3.8,8.6c4.7-3.2,5.1-9.5,7.9-14
	c-0.2,5.5-1.2,10.9-2.1,16.3c3.5-7.1,4.4-15.3,4.1-23.1c6.1,5.1,9.7,12.3,12.9,19.4c1.3,3.5-2.6,6.1-4,9c2.3-1.4,5.1-2.3,6.9-4.4
	c1.4-4.3-2-7.8-4.3-11c-6.1-7.8-10.6-16.8-13.3-26.4C498.3,328,492.2,332.7,486.6,337.9 M732.3,323.2c-1.1,0.5-0.1,2,0.9,1.3
	C734.3,323.9,733.2,322.5,732.3,323.2 M435,323.2c1.6,0.9,3.3,1.6,5,2.1C438.4,324.4,436.7,323.7,435,323.2 M703.6,328.7
	c1.7-1.8,2.3-4.3,2.7-6.6C705,324.1,704,326.3,703.6,328.7 M621.3,324.7c0.5,3,1,6,1.5,9c1-0.1,1.9-0.2,2.9-0.2
	c-1-3.6-1.5-7.4-2-11.1C622.8,323.2,622.1,323.9,621.3,324.7 M545.7,322.6c-0.2,3.8-0.9,7.5-1.6,11.1c0.9,0,1.8,0,2.8,0
	c0.5-3.2,1-6.4,1.3-9.6C547.3,323.6,546.5,323.1,545.7,322.6 M463.5,322.2c0.4,2.4,1.2,4.7,2.4,6.7
	C465.7,326.5,464.8,324.2,463.5,322.2 M662.1,320.9c-0.7,2.4-1.2,4.9-1.4,7.4C662.3,326.3,664.6,323.1,662.1,320.9 M509.1,328.7
	c-0.5-2.7-1-5.3-1.6-7.9C505.1,323.4,507.3,326.5,509.1,328.7 M726,331.6c5.9-1.6,11.5-4.2,17.5-5.1c-3.6,2.5-7.4,4.6-11,7.2
	c5.3-1.6,10.1-4.4,15.4-6c-4.1,2.5-8.3,4.8-11.4,8.5c2.5-0.9,5-1.8,7.5-2.6c-1.1,1.8-2.2,3.5-3.3,5.3c1.7-0.4,3.2-0.9,4.9-1.2
	c0.3,1.6,0.7,3.2,1,4.8c2.5,0.1,4.9,0,7.4-0.2c-2.4-1-4.8-1.9-7.2-2.9c1.9-0.2,3.9-0.1,5.7,0.8c3.1,1.4,6.6,1.7,9.9,2.4
	c-3.1,0.3-6.2,0.6-9.3,1c0.6,0.6,1.2,1.1,1.8,1.7c-1.1,0.4-2.3,0.8-3.4,1.2c2.2,2.8,4.6,5.6,8.1,6.8c5.3,1.9,11.1,3,15.1,7.3
	c4.2,4.7,9.9,7.5,14.5,11.8c-0.8-4.1,0-8.7-2-12.5c-3.8-3.2-7.7-6.2-11.6-9.3c-4.2-1.9-8.9-2.7-13-4.8c8.1,0.8,15.9,3.1,23.7,5.5
	c-3.6-3.9-8.6-5.9-12.6-9.4c3.6,1.4,7.1,3.2,10.7,4.6c-1.7-5-3.1-10.9-8.2-13.6c-7.5-5.1-15.2-12-24.8-11.6
	C743.1,325.2,733.9,326.9,726,331.6 M412.3,321.9c-7.8,1.5-13.2,7.7-19.7,11.7c-4.8,2.4-5.7,8-7.2,12.7c3.7-1.4,7.2-3.1,10.8-4.6
	c-4.1,3.5-9.1,5.8-13.1,9.5c7.8-2.1,15.5-4.6,23.6-5.4c-2.4,0.9-4.8,1.7-7.2,2.5c0.3,0.3,0.5,0.6,0.8,0.9c-4.4,0-8.2,2.1-11.5,4.9
	c1.1-1.4,2.2-2.8,3.2-4.1c-3.1,1-6.1,2.2-9.1,3.5c0,1.1-0.1,3.3-0.2,4.4c2-1.1,4-2.2,6.1-3.2c-2,1.7-4.4,3-6.2,5
	c-2.3,3.8-1.7,8.5-2.4,12.7c4.6-3.9,9.7-7.3,14.1-11.4c3.9-4.1,9.4-5.5,14.7-7.1c3.8-1.1,6.7-4.1,9-7.3c-1.2-0.5-2.4-0.9-3.6-1.3
	c0.6-0.6,1.2-1.1,1.8-1.7c-2.9-0.4-5.8-0.8-8.7-1.1c4.8-0.7,9.4-1.9,13.9-3.7c0.5,0.4,1,0.8,1.5,1.2c-2.3,0.7-4.7,1.4-7,2.1
	c2.1-0.1,4.7,1.2,6.7-0.1c1.1-1.3,1.3-3,1.8-4.5c1.5,0.4,3,0.8,4.6,1.2c-1.2-1.7-2.4-3.4-3.6-5.1c2.6,0.7,5.2,1.7,7.8,2.5
	c-2.9-2.7-5.7-5.7-9.6-6.9c-3.3-1.4-7-0.4-10.4-0.6c0-0.4,0-1.1,0-1.5c8.6-0.9,16,3.6,23.7,6.7c-3.3-2.6-6.8-4.8-10.1-7.2
	c6,1,11.6,3.7,17.5,5.1c-7.6-5-17-5.5-24.7-10.1C417.1,320.3,414.5,321.5,412.3,321.9 M657.9,314.7c5.6,7.3,13.3,13.2,22,16.1
	c-5.2-4.8-9.2-10.6-13.4-16.1C664.3,311.9,660.6,313.6,657.9,314.7 M506.5,313c-3.7,0.8-5.4,4.5-7.5,7.3c-2.9,4.2-6.6,7.8-10.1,11.5
	c8.6-4,16.7-9.4,22.7-16.9C510,314.1,508.3,313.3,506.5,313 M626.3,316.7c0.9,0,1.8-0.1,2.7-0.1c1.1-3.9,3.2-7.5,5.9-10.5
	c-1.7,0-3.4,0.1-5.1,0.1c-0.8,2.4-1.5,4.8-2.1,7.3c0.3-2.8,0.7-5.5,1.1-8.3C626.6,308.6,626.5,312.8,626.3,316.7 M565.6,305.5
	c0.3,1.3,0.6,2.6,0.8,3.9c12.2-1.7,24.6-1.4,36.9,0c0.1-1.3,0.2-2.6,0.3-3.9C590.9,305.5,578.3,305.5,565.6,305.5 M540.6,305
	c0.3,1.7,0.6,3.4,1,5c-1.3-2.9-3.8-4.9-7.3-4.5c2.5,3.3,5.3,6.7,6.3,10.9c0.8,0.1,1.5,0.2,2.3,0.2
	C542.5,312.8,543.1,308.4,540.6,305 M623.7,304.8c-1,3.5-1.1,7.2-1.5,10.9c1.2,0.4,2.4,0.7,3.6,1.1c0.3-4,0.7-7.9,1.1-11.8
	C625.8,304.8,624.7,304.8,623.7,304.8 M542.4,305.4c1.7,3.5,1.5,7.4,1.1,11.2c1.3-0.3,2.6-0.5,3.9-0.8c-0.3-3.7-0.5-7.5-1.2-11.1
	C544.9,304.9,543.7,305.1,542.4,305.4 M620.5,316.1c0.7-4.1,1.1-8.2,1.1-12.4C619.2,307.4,620.1,312,620.5,316.1 M616.3,303.3
	c-1.9,2.4-0.1,5.6-0.3,8.3c-0.9-2-1.8-4.1-2.5-6.2c-2.5,0.6-5,1.1-7.5,1.7c-0.2,0.5-0.6,1.4-0.8,1.8c2.9,5.3,9,4.8,14.1,5.8
	c0-3.9,0-7.7,0-11.6C618.4,303.2,617.3,303.2,616.3,303.3 M550.2,303.7c0.2,3.6,0.1,7.2-0.1,10.8c-0.8-3.5-1.2-7-1.8-10.5
	c-0.1,3.8-0.1,7.5-0.2,11.3c4.1-0.9,8.3-1.5,12.3-2.6c1.8-1.3,2.9-3.3,4.2-5c-2.9-0.8-5.8-1.7-8.7-2.6l-0.2,3
	c-0.4-0.4-0.9-0.8-1.3-1.1c-0.1,1.2-0.4,3.6-0.6,4.8c-0.1-3,0.1-6-0.4-9C552.4,303,551.3,303.3,550.2,303.7 M627,293.7
	c0,3.5-0.3,7.4,1.8,10.4c4.6,1.3,9.3,0.1,14,0.1c-5.4,3.6-11.4,7.8-11.7,14.9c1.8-1.6,2.6-5.2,5.7-3.9c6.2,2.1,11,6.9,13.8,12.6
	c-1.5-0.5-3-1.1-4.5-1.7c0.4,0.9,0.8,1.8,1.3,2.7c-6.8-3.6-13.9-6.9-21.7-7.2c-0.2,2.9-0.5,5.9,0.2,8.9c-0.8,2.4,1.3,2.7,2.6,3.1
	c6.2,0.9,10.6,5.8,14.5,10.3c-6.1-1.5-11-5.5-16.4-8.4c-3.7,1.4-6.9,3.7-10,6.1c-1.7,1.2-0.6,3.6-0.7,5.3c5.9-0.9,12-2.4,18-1.5
	c4.7,1.6,8.8,4.5,13,7.1c7.2-9.5,11.1-20.9,13.7-32.4c-5.2-5.7-12.3-9.1-17.7-14.7c4.7,2.4,8.9,5.7,13.1,8.9
	c1.1-1.1,2.3-2.2,3.4-3.3c-3.4-3-6.7-6.2-9.9-9.5c-1.3,1.4-2.6,2.8-3.9,4.2c1-1.9,2-3.7,3-5.6c-1.5,1.6-3,3.2-4.6,4.8
	c1.1-2,2.2-4,3.4-5.9C640.4,298.2,633.1,297.5,627,293.7 M522.6,298.8c0.9,1.8,1.9,3.6,2.6,5.5c-1.4-1.4-2.8-2.7-4.2-4.1
	c0.9,1.6,1.8,3.2,2.6,4.9c-1.2-1.1-2.4-2.2-3.5-3.4c-3.2,3-6.4,6.1-9.7,9.1c0.8,0.9,2.3,2.6,3,3.5c4.5-3.1,8.5-7,13.6-9
	c-5.7,5.2-12.2,9.3-17.9,14.3c2,11.7,6.4,22.9,13.2,32.7c6.2-2.8,11.9-8.5,19.3-6.9c3.9,0.3,7.7,0.7,11.5,1.5c0.3-1.6,0.3-3.4,0.5-5
	c-3.5-2.3-7-4.5-10.5-6.8c-5.4,3.3-10.7,7.4-17.1,8.7c3.7-3.9,7.7-7.8,12.9-9.6c6.1-0.8,6-8.1,4.5-12.5c-7.6,0.1-14.4,3.4-21,6.9
	c0.4-0.9,0.8-1.8,1.3-2.7c-1.5,0.6-3,1.2-4.4,1.7c2.9-6.8,9.3-12.9,17.1-13c0.1,1.2,0.2,2.4,0.2,3.6c0.7,0.1,1.5,0.3,2.2,0.4
	c-0.5-1.6-0.9-3.1-1.5-4.6c-1.7-4.6-6.7-6.7-10-9.9c4.6,0.5,9.2,0.3,13.8,0c1-3.4,1.7-6.9,1.4-10.4
	C536.3,296.8,529.6,298.9,522.6,298.8 M704.5,300.2c-2.9,3.8-6.1,7.8-6.6,12.7c1.9-3,3.5-6.3,5.5-9.3c2.8-4.8,7.2-8.3,11.1-12.1
	C710.4,293.4,707.2,296.7,704.5,300.2 M455.5,291.6c7.1,6,12.4,13.6,16.6,21.9C470.3,304.3,463.1,296.7,455.5,291.6 M742.4,285.3
	c-0.8,0.8,0.6,2.2,1.4,1.4C744.6,285.9,743.2,284.5,742.4,285.3 M718.8,289.6c3.2-0.1,6.4-0.3,9.6-0.4c-1.8,1.5-3.6,3-5.4,4.5
	c0.4-1.2,0.7-2.5,1.1-3.7c-4.9,4.1-9.3,8.8-13.7,13.4c1.5-0.6,2.9-1.2,4.4-1.6c-0.4,1.7-0.7,3.4-1,5c5.9-5.4,12.4-10,18.9-14.6
	c-4.2,7-9.3,13.3-13.7,20.2c7.3-5.8,10.9-15.1,18.2-20.9c-1,2-2.3,3.8-3.8,5.5c-5.3,6.6-10.1,13.7-14.4,21c-3.2,5.2-8.3,8.8-13,12.5
	c2.4,0.5,5.4,1.8,7.1-0.5c5.4-7.7,12.2-14.5,20.7-18.6c7-3.3,15.4-4.7,22.7-1.7c-6.9,0.4-13.8,1.4-20.2,4.1
	c12.7,0.2,25.6,2.5,36.7,8.8c-1.6-4.5-4.9-8-7.9-11.6c-8.5-8.7-17-17.7-26.8-24.9C731.9,282.9,725.1,288,718.8,289.6 M429.8,286.9
	c-6.9,5.1-12.5,11.6-18.9,17.2c-5.4,5.7-11.4,11.2-14.8,18.4c11.3-6,23.9-8.9,36.7-8.9c-6.2-2.7-13-3.6-19.7-4.4
	c16.5-4.9,32.8,6,41.9,19.1c1.4,2.8,4.7,3.2,7.4,3.4c0.1-0.8,0.2-1.7,0.2-2.5c-5.2-3-9.8-7-12.7-12.3c-4.9-8.9-11.5-16.7-17.2-25.1
	c7.1,6.1,11,15.1,18.3,20.9c-4.5-6.9-9.8-13.3-14.2-20.3c6.8,3.8,12.7,9,18.7,13.8c-0.1-1.8-0.1-3.7-0.4-5.5
	c1.3,0.9,2.5,1.8,3.8,2.7c-3.7-5.1-8.8-9-13.4-13.3c0.3,1.3,0.6,2.6,1,3.8c-1.8-1.5-3.5-3.1-5.3-4.7c3,0,6.1,0.1,9.1,0.2
	C444.1,287.5,436.1,281.9,429.8,286.9 M426.1,284.6c-0.2,0.9-0.4,1.9-0.6,2.8c0.9-0.6,1.8-1.3,2.7-2
	C427.5,285.2,426.8,284.9,426.1,284.6 M643.4,276.1c-0.3,6,0.2,11.9,0.6,17.9c-0.4-2-0.8-4-1.2-6c-4.2,3.8-9.9,4-15.2,5
	c5.2,2,10.9,2.5,16.5,2.1c2.2-1.7,0.5-5,0.9-7.1C644.5,284,645.2,279.7,643.4,276.1 M524.5,294.9c6,0.2,12.1,0.1,17.8-2
	c-5.3-0.9-11-1.2-15.4-4.9c-0.4,1.8-0.9,3.4-1.2,5.2c0.4-5.7,0.4-11.4,0.1-17.1C523.7,282.2,525.3,288.8,524.5,294.9 M579.7,299.5
	c-0.1-2.8-0.2-5.5-0.3-8.3c-1.7,2.3-3.8,4.7-6.6,5.6c-9.2,0.2-18.5,0-27.6-1.6c-0.3,2.8-0.7,5.7-1.6,8.4c3-0.6,6-1.3,9-1.6
	c3.6,0.1,6.8,2.2,10.4,2.2c7.5,0,14.8-1.3,22.3-1.1c9.2-0.1,18.5,2.5,27.5-0.2c4.4-1.5,9.1-0.2,13.5,0.7c-1.4-2.6-2.2-5.5-2.1-8.5
	c-8.1,1.8-16.5,1.6-24.7,1.4c-0.2,1-0.7,3-1,4c-0.1-1.1-0.4-3.4-0.6-4.5c-0.2,0.9-0.6,2.6-0.8,3.5c-1.9-2.9-4.3-5.4-6.9-7.7
	c-0.3,2.7-0.6,5.4-0.8,8.1c-1.5-8.2-1.3-16.6-2.5-24.8c-1.3,9-1,18.2-1,27.3c-0.8-0.1-1.6-0.3-2.4-0.4c-0.2-9.2-0.1-18.4-0.6-27.5
	C581.5,282.7,582,291.3,579.7,299.5 M722.4,271.2c0-0.7,0.1-1.3,0.1-2c-5.4,4.8-10.7,9.9-14.8,16c3.9-1.9,7.7-4.1,12.1-4.9
	c7.9,0.6,16.1-0.1,23.6,2.9c-0.5-2.6-0.8-5.2-1.5-7.7c-5.9-3.1-12.9,0.4-19.1,0.4c4.6-2.3,9.8-3,14.8-3.8
	C734.4,266.5,727,270.4,722.4,271.2 M432,272.3c5.2,0.6,10.4,1.6,15.3,3.5c-6.5-0.8-13-2.5-19.6-1c-0.5,2.8-1,5.6-1.6,8.3
	c6.6-2.7,13.9-2.6,20.9-2.9c5.2-0.4,9.8,2.5,14.4,4.3c-3.3-6.3-9.2-10.4-14.2-15.2c0,0.6,0.1,1.3,0.1,1.9
	C442.6,270.4,435.1,266.3,432,272.3 M557.5,263.5c-6.9,1.1-14,0.3-20.7,2.2c-3.6,3.3-6.5,7.3-10,10.7c0.7-0.1,1.4-0.1,2.1-0.1
	c-0.1,3.2,0.6,6.4-0.3,9.5c4.5,3.9,10.4,4.9,16.2,3.6c8.7-1.8,17.7-2.2,26.5-3.2c1.8-0.1,3.3-1.2,4.4-2.6c4-5.9,8.1-12.3,7.9-19.8
	c0.8,0,1.7-0.1,2.5-0.1c-0.1,3.5,0.1,7.1,1.9,10.2c2.5,4.4,4.4,10,9.2,12.3c8.7,1.1,17.5,1.1,26.1,2.9c5.8,0.7,12.9,2.2,17-3.1
	c0.9-3.1,0.2-6.5,0.2-9.7c0.7,0,1.3,0,2,0c-2.3-2.6-4.8-5.1-7.2-7.7c-1.6-1.5-3.1-3.6-5.5-3.7c-9.8-1-19.7-1.7-29.6-2.4
	C586.1,263.3,571.8,261.4,557.5,263.5 M605.8,261.4c1.9,0.1,5.6,0.2,7.5,0.2c0.3-1,0.5-2,0.8-3C611.2,259.1,607.8,258.8,605.8,261.4
	 M555.2,259c1.5,3.4,5.5,2.1,8.5,2.6C562.1,258.2,558.1,259.4,555.2,259 M706,252.9c-1,2.6-1.8,5.3-2.4,8.1c1.3-1.6,2.6-3.1,3.9-4.6
	c-1.5,5.8-3.5,11.5-4.3,17.4c3.8-3.5,5.9-8.4,9.3-12.3c-3.5,7.9-7.9,15.3-11.2,23.2c4.5-5.1,7.7-11.2,12.9-15.6
	c-4.4,5.9-8.1,12.2-10.7,19.1c4.4-5.1,7.3-11.4,12.1-16.2c3.9-2.9,8-6.2,13-6.6c-0.2,1-0.5,1.9-0.7,2.9c1.1-0.4,2.2-0.8,3.3-1.2
	c-1.4-1.3-2.7-2.6-4.4-3.4c-4.1,1.4-7.4,4.3-11,6.7c1.3-3.9,4.1-6.8,7.8-8.7C718.2,257.8,712.4,254.6,706,252.9 M445.7,261.7
	c4,1.8,7.3,4.8,8.6,9.1c-3.5-2.4-6.8-5.4-10.7-7.1c-2.3,0.1-3.9,2.3-5.6,3.7c2.7-0.3,5.7-2.3,8.2-0.5c8.8,3.8,13.5,12.5,19,19.8
	c-2-6.8-6.5-12.3-10.4-18.1c5.5,4.6,8.8,11.1,13.8,16.1c-3.9-7.8-8.3-15.4-11.7-23.5c3.5,3.9,5.9,8.8,9.5,12.6
	c-1-6-2.8-11.8-4.5-17.6c1.4,1.8,2.8,3.6,4.1,5.5c-0.8-2.9-1.7-5.8-2.6-8.6C456.9,254,451.5,258.3,445.7,261.7 M606.5,256.1
	c3.9,1.1,8.2,0.5,12.1-0.4c0.2-0.9,0.6-2.8,0.8-3.8C614.9,252.8,610.9,254.9,606.5,256.1 M550.5,251.8c0.1,1.1,0.3,3.2,0.4,4.3
	c3.8,0.4,7.6,0.8,11.5,1c0-0.4,0-1.2,0-1.6C558.3,254.4,554.5,252.9,550.5,251.8 M648.8,256.3c-2.4,1.8-5.1,3.1-7.9,4.2
	c1,2.6,2.1,5.1,3.2,7.6c0.6-0.7,1.2-1.3,1.9-2c-0.4,1.2-0.9,2.4-1.5,3.6c-1.6-2.6-2.9-5.4-4.3-8.1c-2.7,0.7-5.5,1.3-8.3,1.9
	c5.2,4.2,10.1,8.6,15.5,12.5c1.9-8.6,4.1-17.1,4.7-25.9C650.9,252.2,650.3,254.5,648.8,256.3 M517.9,250.2
	c0.3,8.7,2.4,17.3,4.3,25.8c5.5-3.7,10.5-8.1,15.3-12.6c-2.8-0.6-5.6-1-8.3-1.6c-1,2.3-2,4.7-3,7c-0.5-0.1-1-0.2-1.4-0.3
	c1.5-2.5,2.9-5.2,3.9-7.9c-3.1-1.2-6-2.7-8.3-5.1C519.2,253.8,518.7,251.9,517.9,250.2 M611.6,244.7c0.4,2.5,0.9,4.9,1.4,7.3
	c1.6-0.6,3.1-1.2,4.7-1.7C616.2,247.9,614.6,245.4,611.6,244.7 M552.1,250.2c1.4,0.6,2.8,1.2,4.2,1.8c0.7-2.5,1.3-4.9,2-7.3
	C555.1,245.1,553.4,247.7,552.1,250.2 M607.8,243.5c0.1,3.2,0.7,6.3,1.1,9.5c0.5,0,1.5,0.1,2,0.1C610,249.9,609,246.6,607.8,243.5
	 M567.3,245.1c-1.6,4.8-3,9.8-2.9,14.9c13.7,1.3,27.4,0.7,41.1-0.1c-0.9-4.8-0.8-10.2-3.5-14.5C590.7,242.8,578.8,244.1,567.3,245.1
	 M558.8,253.2c0.5-0.1,1.6-0.3,2.1-0.4c0.4-3.1,0.9-6.2,1.2-9.3C560.8,246.6,559.6,249.8,558.8,253.2 M620.8,239.5
	c-1.3,0.3-0.7,2.3,0.5,1.9C622.5,241.1,622,239.1,620.8,239.5 M666.9,236.7c-2,17.9-3.2,36-3.3,54c2.7-9.4,2-19.6,6.4-28.4
	c-0.8,4.5-1.7,9.1-1.3,13.7c-0.2,7.1-1.4,14.5,0.8,21.4c1.9,4.6,5.3,8.4,8.4,12.3c0.9-0.9,1.7-1.9,2.6-2.8c0.1,2.7,0.2,5.4,0.3,8.1
	c1.5-6.2,2.2-12.5,2.5-18.8c0.8,5,1.8,9.9,2.9,14.8c0.1-8.1-2.1-16-1.8-24.1c1.3,4.3,2.4,8.6,3.7,12.9c-0.8-8.5-3.2-16.9-1.6-25.5
	c2.3,4.8,4.4,10.1,3.8,15.5c-1.1,9.6-2.5,19.3-2.9,29c0.6,4.9,2.1,9.7,3.1,14.5c2.3-27.3,7.9-54.1,13.6-80.9
	c0.9-4.6-4.3-6.7-7.8-8.2c-1.7,12.9-2.6,25.9-5.1,38.6c-1.8-5.9-4.2-12.1-2.8-18.3c0.3,1.9,0.7,3.9,1,5.9c0.3-5.1-0.2-10.6,1.9-15.4
	c1.6-3.5,2.3-7.3,2.9-11.1C685.2,241.1,676.1,238.3,666.9,236.7 M476,243.6c0.5,4.1,0.3,8.9,2.9,12.5c3,3.6,0.9,8.8,1.7,13
	c0.3-1.1,0.8-3.4,1.1-4.5c0,6.2-1,12.4-3.1,18.3c-3.3-12.5-3.7-25.6-5.2-38.4c-3.8,0.7-9,3.6-7.7,8.2c5.6,26.7,11.5,53.4,13.5,80.6
	c1.2-5.6,3.7-11.1,2.9-16.9c-0.5-8.5-1.8-17-2.8-25.4c-0.5-5.7,1.6-11.2,3.6-16.4c2.9,8.2-1.1,16.4-1.1,24.7
	c1.3-4.3,2.5-8.6,3.8-12.9c-0.5,7.8-2.4,15.5-1.8,23.4c0.9-4.5,1.8-9,2.8-13.6c0.3,6.1,0.7,12.2,2,18.1c0.2-2.8,0.3-5.5,0.5-8.3
	c0.7,1.4,1.4,2.8,2.1,4.1c5-5.8,10.7-12.1,10.1-20.3c-0.3-9.1,0-18.3-1.5-27.4c4.2,8.3,3.8,18.1,6,27c0-17.7-1.5-35.3-3.2-52.9
	C493.6,238.3,484.9,241.4,476,243.6 M618.6,238.7c0.8-0.1,1.6-0.2,2.5-0.3c0.1-0.8,0.2-1.6,0.3-2.5
	C620.4,236.8,619.5,237.8,618.6,238.7 M553.3,236.3c-1,0.6,0.1,2.3,1.1,1.5C555.3,237.2,554.3,235.5,553.3,236.3 M611.8,234.4
	c-0.1,0.8-0.3,1.6-0.4,2.4c0.4-0.1,1.3-0.3,1.8-0.4c0-0.7,0-1.3,0-2C612.9,234.3,612.2,234.4,611.8,234.4 M656.2,234
	c1.2,0.8,2.4,1.6,3.7,2.4c-0.8,0.4-1.6,0.8-2.5,1.2c-2,11.3-2,22.7-3.1,34.1c-1,7.9-2.5,15.8-4.5,23.6c-0.3-2.8-0.6-5.6-0.8-8.4
	c-0.5,2.7-0.9,5.4-1.4,8.2c2.7,1.9,5.1,4.1,7.6,6.1c0.8-5,2-9.9,2.3-14.9c0.6-15.5,0.7-31.4,4.9-46.4c-1.9,13.2-3.5,26.5-3.4,39.8
	c1.9-14.7,4.3-29.2,6.7-43.8C662.5,235.2,659.4,234.6,656.2,234 M626.3,233.6c-0.1,0.4-0.4,1.3-0.5,1.7c0.9,0,1.9,0,2.8,0
	c-0.1-0.4-0.3-1.3-0.5-1.7C627.5,233.6,626.9,233.6,626.3,233.6 M504,235.8c2.7,15.2,5,30.4,7.1,45.7c-0.8-14-1.9-28-4.1-41.9
	c1.5,3.5,2.3,7.2,2.8,11c1.5,11.7,2.3,23.4,2.5,35.2c0,5.2,1.5,10.2,2.5,15.3c2.3-2.1,4.8-4,6.8-6.4c0.5-2.6-0.3-5.3-0.5-7.9
	c-0.3,2-0.9,6-1.3,8c-4.6-15.7-5.2-32.1-6.4-48.3c-0.8-3.4,0.1-8.3-3.5-10.3c1.1-0.7,2.1-1.5,3.2-2.2
	C510.1,234.8,507.1,235.5,504,235.8 M514,227c-1.1,6.3,1.5,12.4,3.1,18.4c1.7,4.1,5.5,6.8,8.7,9.6c1.9,1.7,4.6,1.1,6.9,1.1
	c-2-2.5-5.6-3.3-6.9-6.3c-2.6-4.5-5.6-8.7-7.9-13.3C516.6,233.3,515.6,230,514,227 M655.4,226.6c-2.4,8.5-7,16-11.6,23.4
	c-1.7,2.8-5.3,3.6-7.1,6.3c2.5-0.3,5.4,0.1,7.3-1.7c3-2.6,6.3-5,8.3-8.5C654.8,239.9,657.2,233.4,655.4,226.6 M634.8,225.1
	c-0.1,0.5-0.2,1.6-0.2,2.2c1.2-0.7,2.3-1.4,3.5-2.2C636.9,225.1,635.8,225.1,634.8,225.1 M546.7,223.7c-0.3,1.1,0,1.4,1.1,1.1
	C548.2,223.7,547.8,223.4,546.7,223.7 M555.2,218.1c0,1.1,0.1,2.1,0.2,3.2c0.9,0.1,1.7,0.2,2.6,0.3
	C557.1,220.5,556.2,219.3,555.2,218.1 M531.7,217.8c-1,0.3-0.5,1.8,0.5,1.4C533.1,219,532.5,217.4,531.7,217.8 M458.3,216.1
	c-0.9,6.3-0.6,12.7,0.8,18.9C459.1,228.7,458.8,222.4,458.3,216.1 M710.8,215.5c-0.5,7-0.5,13.9,0,20.9
	C711.8,229.4,712.2,222.4,710.8,215.5 M664.5,217c-1.6,3,2.9,4.9,4.4,7c-0.1-3.2-0.3-6.4-0.6-9.6C667,215.2,665.3,215.6,664.5,217
	 M501.5,215.1c-0.4,3.2-0.9,6.3-1.3,9.5c1.8-1.8,3.6-3.5,5-5.7c0-1.3-0.6-2.5-0.9-3.7C503.3,215.1,502.4,215.1,501.5,215.1
	 M594.3,214.3c0.2,1,0.4,1.9,0.7,2.9c0.7-0.7,1.5-1.5,2.2-2.2C596.3,214.7,595.3,214.5,594.3,214.3 M577,212.5
	c-1.3,0.3-0.7,2.3,0.5,1.9C578.7,214.2,578.2,212.1,577,212.5 M703.9,210c-1.7,9.6-3.3,19.3-3,29.1c1.6,3.3,3.9,6.1,5.9,9.1
	c0.6-12.5,1.2-25,1-37.5C706.9,210.4,704.9,210.1,703.9,210 M461.4,211.1c0.7,12.1,0.4,24.3,1.4,36.5c2.9-3.8,7.2-7.7,6.1-13
	c-0.9-8.2-1.9-16.4-3.1-24.6C464.3,210.3,462.8,210.7,461.4,211.1 M618.1,208.5c0,0.5,0,1.5,0,2c0.5,0,1.5,0,2,0c0-0.5,0-1.5,0-2
	C619.5,208.5,618.6,208.5,618.1,208.5 M704.7,206.3c-0.7,0.6-0.4,2.2,0.7,2.1C706.6,208,706,205.4,704.7,206.3 M552,206
	c-0.3,1.1,0,1.4,1.1,1.1C553.4,206,553,205.7,552,206 M464.2,205.9c-0.7,0.6-0.5,2.1,0.5,2.3C466,208.1,465.4,205.5,464.2,205.9
	 M554.6,204.7c-1,0.2-0.8,2,0.3,1.6C555.9,206.1,555.7,204.3,554.6,204.7 M643.9,204.1c-0.7,1.2,1.3,1.9,1.9,0.9
	C646.5,203.8,644.5,203.1,643.9,204.1 M660.2,203.9c-0.8,0.5-1.3,1.9-0.6,2.7C660.8,206.8,661.4,204.2,660.2,203.9 M508.6,202.4
	c0.5,1.8,1.1,3.5,1.9,5.1C510,205.8,509.4,204,508.6,202.4 M666.1,206.7c3.1-0.7,6.1-1.8,8.2-4.2
	C671.2,203.5,666.1,202.1,666.1,206.7 M495.1,202.5c2.4,2.2,5.4,3.4,8.5,4.1c-0.3-1-0.6-2-0.9-3
	C500.1,203.4,497.6,203.1,495.1,202.5 M607.7,198.2c-0.3,1.1,0,1.4,1.1,1.1C609.1,198.2,608.8,197.8,607.7,198.2 M586,198.2
	c-1.1,0-1.2,1.8-0.1,1.7C587.1,200,587.1,198.2,586,198.2 M518.7,198.3c-0.9,0.8,0.5,2.2,1.3,1.3
	C520.9,198.8,519.5,197.4,518.7,198.3 M663.3,206.9c0.5,0,1.4,0,1.8,0c0.6-3.3,0.7-6.6,0.5-9.9C664.7,200.3,664,203.6,663.3,206.9
	 M503.7,197c0,3.7,0.4,7.4,1.9,10.8C505.6,204.2,505.3,200.3,503.7,197 M705.5,198.8c1,3.6,3.3,6.8,4,10.6
	c-0.4-4.5-0.5-9.1-1.7-13.4C707,196.9,706.1,197.8,705.5,198.8 M461.3,196.7c-0.8,4.2-1.1,8.5-1.1,12.7c1.6-4.1,3.7-8.2,3.7-12.7
	C463.2,196.7,461.9,196.7,461.3,196.7 M630.1,202.3c-1.1,5.9-3.1,13.2,1.8,18c3.3-1.2,7.3-2.1,8.5-5.9c3-4.1-1.8-11.3,3.7-13.5
	c0.1-0.4,0.3-1.2,0.4-1.5c-1.3,0.3-2.5,0.8-3.8,1c-2.2-1.4-3.9-3.6-6.2-4.9C630.8,195.3,630.6,199.9,630.1,202.3 M606.9,195.4
	c0,0.5,0,1.5,0,2c0.5,0,1.5,0,2,0c0-0.5,0-1.5,0-2C608.4,195.4,607.4,195.4,606.9,195.4 M542.4,197.5c1.2-0.6,2.3-1.2,3.4-2
	C544.6,196.1,543.5,196.8,542.4,197.5 M667.2,196c0,1.9,0,3.8,0,5.7c1.3,0.1,2.5,0.2,3.8,0.1c2.5-1.4,1-4.9,1.4-7.1
	C670.6,195,668.9,195.5,667.2,196 M497.9,194.3c-0.2,2.2-1.7,4.8-0.2,6.8c1.5,1,3.4,0.5,5.1,0.5c0-1.2,0-3.7,0-4.9
	C501.2,195.9,499.6,195.1,497.9,194.3 M662,204.8c1.2-3.7,2.6-7.4,4-11.1C662.1,196,662.6,201,662,204.8 M503.3,194
	c1.6,3,3,6.2,4,9.5c-0.3-2.8-0.6-5.5-1-8.3C505.3,194.8,504.3,194.4,503.3,194 M594,193.6c-0.8,1,0.9,2,1.5,1.1
	C596.3,193.7,594.7,192.6,594,193.6 M558.1,192.9c-0.7,0.9,0.8,1.9,1.4,1C560.2,193,558.7,192,558.1,192.9 M683,190.8
	c-0.3,3.2-0.5,6.3-0.7,9.5c3.2,0.8,6.3,2.2,9,4c-3.1-0.1-6.1-0.6-9.2-0.8c-2.1,3.3-4.7,6.2-7,9.3c-0.7,2.7,0.2,5.6,0.1,8.4
	c0.9-1.1,1.8-2.2,2.7-3.2c0.1,0.9,0.2,1.8,0.3,2.7c0.9-0.9,1.7-1.8,2.8-2.6c1.6,2.2-0.6,4.2-2.5,5.2c-2.7,1.5-4.4,4.1-5.7,6.8
	c2.5-2.3,4.6-5,7.6-6.6c-0.4,2-0.7,4-0.8,6c1.7-0.2,3.4-0.3,5-0.9c0.8-2.3,0.7-4.9,2.5-6.8c3.1-4.2,4.5-9.2,6.8-13.7
	c-0.4,8.2-4.7,15.2-8.4,22.2c4.1-4.7,6.4-10.6,8.9-16.2c0.2,1.9,0.4,3.8,0.7,5.7c0.4-3.2,0.8-6.4,1.1-9.6c0.3,0.7,0.6,1.5,1,2.2
	c1.4-6.1,2.5-12.7,7.5-17.1C697.7,193.2,690.3,192.1,683,190.8 M464.6,195.5c1.3,1.4,2.5,2.8,3.7,4.4c3.3,3.6,2.9,8.8,3.8,13.2
	c0.5-0.7,1-1.4,1.6-2.2c0.4,3.5,0.7,6.9,1.2,10.4c0.2-1.7,0.5-5.2,0.6-7c1.9,5.6,4.5,11,8.1,15.6c-3.1-7-7.2-13.8-7.9-21.6
	c2.8,4,3.4,9.1,6.6,12.9c2,2.1,2.8,5,2.7,7.9c1.5,0.1,3,0.3,4.5,0c1.4-1.6,0.2-3.6-0.2-5.4c2.7,1.5,4.8,3.8,7,5.8
	c-0.9-1.9-1.8-3.8-2.8-5.7c-3.2,0.1-5.2-2.1-5.7-5.1c1.7,0.5,3.4,0.9,5.1,0.2c0,0.7,0.1,1.4,0.1,2.1c0.4-0.1,1.2-0.3,1.6-0.5
	c-0.1-2.7-0.2-5.4-0.2-8.2c-3.3-2.1-5.2-5.5-6.6-9c-3.3,0.3-6.5,0.8-9.8,1c2.5-2.7,6-3.4,9.5-4.1c-0.3-3.2-0.5-6.4-0.7-9.7
	C479.4,192.1,471.9,193.6,464.6,195.5 M508.5,196.1c0.3,1.9,1.3,3.6,1.8,5.4c1.8,4.7,0.2,10.1,2.4,14.7c5.2,11.5,14.4,20.5,22.5,30
	c3.9,3.9,8.9,6.1,13.8,8.4c0.5-1.3,0.9-2.6,1.4-4c-2.6-1.1-5.3-2.1-7.8-3.4c-10.3-5-17.5-14.8-22.1-25c-5.4-10.7-6.5-22.9-8.9-34.5
	C510.3,190.4,508.9,193.1,508.5,196.1 M669.8,187.2c-0.2,1.4-0.5,4.3-0.6,5.7c3.3-0.6,5.5,1.6,6.6,4.5c0.4-3.2,0.8-6.3,1.2-9.5
	C674.6,187.8,672.2,187.5,669.8,187.2 M657.8,186.6c-2.1,18.7-6.3,38.4-19.6,52.6c-5,5.8-12.3,8.5-18.9,11.7
	c0.6,1.2,1.1,2.4,1.7,3.6c4.3-2,8.7-3.9,12.3-7.2c8.4-8.8,16.5-18,22.6-28.5c3-5.4,1.8-11.8,3.6-17.5c0.5-2,1.5-3.8,1.7-5.8
	C660.5,192.3,659.1,189.4,657.8,186.6 M575.5,186.9c0,0.5,0,1.6,0,2.1c0.7-0.1,1.5-0.3,2.3-0.4c0.1-0.4,0.3-1.2,0.5-1.6
	C577.3,186.9,576.4,186.9,575.5,186.9 M502.8,186.8c0.5,2.1,0.5,4.4,1.4,6.4c1.5,0.5,3.1,0.6,4.7,0.9
	C507,191.5,504.9,189.1,502.8,186.8 M492.4,187.8c0.6,3.2,1.2,6.5,1.8,9.7c0.6-1.4,1.1-2.9,1.7-4.3c1.6,0,3.2,0,4.8,0.1
	c-0.4-1.9-0.8-3.9-1.2-5.8C497.2,187.7,494.8,187.7,492.4,187.8 M630.2,186.6c-0.2,0.8-0.3,1.6-0.4,2.3c0.4-0.1,1.3-0.3,1.7-0.4
	c0.1-0.8,0.3-1.6,0.4-2.3C631.5,186.3,630.6,186.5,630.2,186.6 M644.5,185.2c0,0.7,0,1.5,0,2.2c0.7,0,1.5,0,2.2,0c0-0.7,0-1.5,0-2.2
	C646,185.2,645.2,185.2,644.5,185.2 M614.2,185.1c-1.3,0.3-0.7,2.3,0.5,1.9C616,186.7,615.4,184.7,614.2,185.1 M660.9,194
	c0.9-0.4,1.8-0.7,2.7-1.1c0.2,0.4,0.5,1.2,0.6,1.7c1.3-2.2,1.8-4.7,2.5-7.1c-1.7,1.5-3.3,3.1-4.9,4.6c2.6-3.7,5.6-7.4,6.1-12.1
	C663.9,183.5,660.6,188.4,660.9,194 M585.2,183.8c1.4-0.1,3.5,1.1,4.5-0.3c0.1-1.3-0.2-2.6-0.3-3.9
	C587.6,180.6,586.2,182,585.2,183.8 M502,180c-0.3,5,3.2,8.8,6.9,11.6C507.7,187.2,505.1,183.4,502,180 M670,184.8
	c1.8,0.4,3.6,0.7,5.5,1c0.7-2.2,0.6-4.5-0.2-6.7C672.7,180,669.4,181.1,670,184.8 M575,180c0,0.7,0,1.4,0,2.1
	c0.8-0.2,1.5-0.4,2.3-0.5c0-0.5,0.1-1.5,0.1-2C576.6,179.7,575.8,179.9,575,180 M494,184.5c1.3,2.1,4,0.1,6,0.1
	c-0.9-1.6-1.4-4-3.3-4.7C494.3,178.9,492.2,182.7,494,184.5 M648.5,179.3c0,0.4,0,1.1,0,1.5c0.7,0,1.4,0,2.1,0c0-0.4,0-1.1,0-1.5
	C649.9,179.3,649.2,179.3,648.5,179.3 M671.4,176.8c-0.1,0.5-0.3,1.4-0.4,1.8c2.7-1,5.4-0.1,7.8,1.3
	C677.5,177,674.1,176.8,671.4,176.8 M490.9,180c2.5-1.7,5.5-2.2,8.4-1.7C496.5,176.5,492.6,176.8,490.9,180 M585.5,175.3
	c-0.3,0.6-0.6,1.3-0.9,1.9c0.7-0.2,1.5-0.3,2.3-0.5c0.1-0.4,0.4-1.2,0.5-1.7C586.9,175.1,586,175.2,585.5,175.3 M595.3,173.9
	c-0.8,1,0.9,2,1.5,1.1C597.6,174,596,172.9,595.3,173.9 M524.6,174.2c-0.7,0.8,0.5,2,1.3,1.3C526.6,174.8,525.3,173.6,524.6,174.2
	 M595.4,169.4c-0.9,0.9,0.6,2.4,1.4,1.4C597.8,169.9,596.3,168.4,595.4,169.4 M538.2,169.3c-0.3,1.1,0,1.4,1.1,1.1
	C539.7,169.3,539.3,169,538.2,169.3 M554,168c-0.3,1.1,0,1.4,1.1,1.1C555.4,168,555,167.7,554,168 M488.9,171.9
	c0.6,8.9,1.2,17.8,3.9,26.4c-0.9-6.9-2.1-13.7-2.7-20.7c3.1-2.4,7.4-2.2,10.2,0.5c-0.5-3.5-0.9-7-1.1-10.5
	C495.6,168.5,492.2,170.2,488.9,171.9 M670.6,167.3c-0.5,3.9-1,7.8-1.6,11.7c0.7-0.7,1.3-1.4,2-2.1c2.1-2.1,5.3-0.4,7.9-0.3
	c0.2,7.8-1.5,15.4-2.4,23c3.3-8.8,3.7-18.2,4.5-27.5C677.6,170.2,674.2,168.5,670.6,167.3 M522.5,166c-0.3,1.1,0,1.4,1.1,1.1
	C523.9,166.1,523.6,165.7,522.5,166 M592.6,165.4c-1.2,0.2-0.7,2.2,0.4,1.8C594.2,166.9,593.7,165.1,592.6,165.4 M547,165.8
	c0.6,0,1.7,0.1,2.3,0.1c-0.1-1.2-0.1-2.4-0.2-3.5C548.4,163.5,547.7,164.7,547,165.8 M535,162.9c-0.9,0.6,0.2,2.1,1,1.4
	C536.9,163.7,535.9,162.2,535,162.9 M669.9,161c0.2,1.4,0.3,2.8,0.5,4.2c0.6,0,1.8-0.1,2.4-0.1C671.9,163.7,670.9,162.4,669.9,161
	 M496.8,165.8c1.8-0.9,3.1-2.4,2.8-4.8C498.5,162.6,497.6,164.2,496.8,165.8 M572.7,160.8c-0.5,0.9,1.1,1.6,1.6,0.8
	C574.9,160.6,573.2,159.9,572.7,160.8 M595.7,157.8c0.3,1.8,1.5,3.1,3,4C598.2,160.1,597.3,158.7,595.7,157.8 M546.8,152.3
	c-0.7,0.9,0.8,1.9,1.4,0.9C549,152.3,547.4,151.4,546.8,152.3 M588.5,152.1c0.1,0.6,0.2,1.9,0.3,2.6c1.2-1,2.4-2,3.5-3
	C591.1,151.8,589.8,151.9,588.5,152.1 M531,143.1c-0.3,1.1,0,1.4,1.1,1.1C532.4,143.1,532.1,142.8,531,143.1 M600.7,141.3
	c-0.1,0.8-0.3,1.6-0.4,2.4c0.4-0.1,1.3-0.3,1.8-0.4c0-0.7,0-1.3,0-2C601.8,141.3,601,141.3,600.7,141.3 M599.1,137.1
	c0,0.5,0,1.6,0,2.1c0.4-0.1,1.2-0.4,1.6-0.5c0.1-0.4,0.4-1.2,0.5-1.6C600.6,137.1,599.6,137.1,599.1,137.1 M666.8,136.9
	c-0.7,0.7,0.3,2.3,1.2,1.8C668.8,138,667.8,136.4,666.8,136.9 M502.2,136.9c-1.1,0.1-1.2,2-0.1,2
	C503.2,138.8,503.4,136.9,502.2,136.9 M590.1,131.3c-0.7,0.9,0.8,1.9,1.4,0.9C592.2,131.4,590.7,130.4,590.1,131.3 M595.4,130.8
	c-0.1,0.8-0.3,1.7-0.4,2.5c0.8-0.1,1.7-0.3,2.5-0.4c0-0.7,0-1.4,0-2.1C596.8,130.8,596.1,130.8,595.4,130.8 M615.1,130.2
	c-5.3,1.3-7.5,7.4-8,12.3c-0.7,11.2,0.8,23.6,8.8,32.1c5,4.9,12.9,9,19.9,5.7c4.2-1.6,5.5-6.2,7.6-9.6c0.6-1.2,1.7-2.7,0.7-4
	c-2.2-4.1-2.1-8.8-3.3-13.1c-2.2-9.6-9-17.5-17.3-22.5C621,129.7,617.8,129.8,615.1,130.2 M544.1,130.9c1.4,0.1,2.8,0.2,4.2,0.2
	c0.1-0.6,0.2-1.8,0.3-2.4C547.1,129.4,545.6,130.1,544.1,130.9 M582.2,128.5c-1.1,0.5-0.1,2,0.9,1.3
	C584.2,129.3,583.1,127.9,582.2,128.5 M598,125.4c-0.7,0.9,0.8,1.9,1.4,0.9C600.1,125.5,598.5,124.5,598,125.4 M641.6,118
	c1.3,1.9,2.7,3.7,4.2,5.5C644.7,121.4,643.1,119.7,641.6,118 M524.1,122.7c1.4-1.6,2.9-3.2,4.2-4.8
	C526.7,119.3,525.3,120.9,524.1,122.7 M564.4,117.6c-1,0.7,0.1,2.3,1.1,1.5C566.5,118.5,565.4,116.9,564.4,117.6 M522.9,141.8
	c3.6-4,6.5-8.4,10.5-12.1c5.6-5.7,12.5-9.6,19.2-13.8C540.2,120.8,529.2,130,522.9,141.8 M547.4,113c-5.9,3-11.1,7.2-16.9,10.5
	c-6.6,3.8-10.7,10.3-15.6,15.9c-2.4,2.9-2.9,6.8-3.5,10.4c-1.4,7.1-2,14.4-1.8,21.6c0.1,5.6-1.6,11.1-1,16.6
	c1.9-2.5,3.4-5.3,4.6-8.2c-0.6,0.1-1.3,0.2-1.9,0.4c0.8-1.6,1.6-3.2,1.7-5c0.7-7.1,1-14.4,3.1-21.2c2.7-7.3,6.2-14.4,10.6-20.9
	c9.7-10.7,22.5-18.6,36.4-22.4c14.5-3.9,29.8-3.1,44.3,0.3c12.9,3.4,24.5,11,33.8,20.5c5.9,6.8,9.4,15.4,12.3,23.8
	c2.9,8.1,1.7,17,4.6,25.1c-0.6-0.1-1.3-0.2-1.9-0.3c1.3,2.8,3,5.4,4.6,7.9c-1.3-15.5-0.3-31.4-4.7-46.5c-5-6.6-10-13.7-17.3-18
	c-7.5-4.6-14.4-10.5-23.2-12.3c-8.6-2.1-17.2-4-26-4.7C575.4,106.1,561.1,109.2,547.4,113 M613.9,77.7c3.4,3.9,7.9,6.9,10.2,11.6
	c-0.3-2.6-0.3-5.2-1.1-7.6C620.3,79.7,617.2,78.1,613.9,77.7 M546.2,81.6c-0.1,1.8-0.3,5.3-0.4,7c2.5-4.4,6.7-7.3,9.8-11.2
	C552.5,78.7,549.3,80.1,546.2,81.6 M594.2,71.1c-0.6,0.7,0.7,1.7,1.3,1C596,71.3,594.7,70.3,594.2,71.1 M574.9,71
	c-0.9-0.3-1.6,1.1-0.6,1.4C575.2,72.8,575.9,71.3,574.9,71 M576.6,72.1c-3,0.9-3.3,4.3-4.4,6.8c0.2-1.4,0.4-2.7,0.6-4
	c-0.5,0.4-1,0.8-1.5,1.2c0.5-1.6,1-3.2,1.4-4.8c-4.9,1.5-9.5,3.9-14.4,5.7c-2,1.8-3.3,4.3-4.8,6.5c-0.1-0.9-0.2-1.8-0.3-2.7
	c-4.9,3.9-4.8,11.4-9.6,15.3c0.2-4.6,1-9.2,1.5-13.8c-2.4,2-5.1,3.7-6.5,6.6c-0.1-0.5-0.4-1.5-0.6-2.1c-3.7,4.3-0.3,10.1-1.6,15
	c-0.7-4-1-8-1.1-12c-1.5,3.1-4.7,4.4-7,6.6c-3.1,6.1-4,13.1-7.3,19.1c0.8-4.7,2.2-9.3,3.3-13.9c-3.6,4-8.7,6.8-11.1,11.8
	c-4.7,10-8.8,20.3-11,31.1c0-1.8,0-3.5,0.1-5.3c-4.7,3.3-8.9,7.3-12.5,11.9c-2.4,4-1.5,8.8-1.6,13.2c7.2-3.9,8.4-13,15-17.6
	c0.1,1.7,0.3,5.1,0.4,6.8c2.5-14.4,4.8-29.6,14.1-41.4c0.7,4.3-1.5,8.4-2.7,12.4c1.4-1.5,2.8-2.9,4.4-4.3c-0.6,1.4-1.2,2.9-1.8,4.3
	c6.9-6.6,14.6-12.2,22.5-17.6c3.1-2.2,6.8-3.4,10.3-4.9c-0.3,1-0.7,1.9-1,2.9c2.1-2.7,4.3-5.5,7.7-6.5c4-1,7.1-3.9,10.8-5.6
	c-0.4,3.8-3.2,6.3-6.5,7.8c6.2-1.1,12.1-3.4,17.4-6.8c1.4-0.7,3.1-0.2,4.6-0.3c0.1-2.5,0-5,0.1-7.6c0.9-0.1,1.8-0.3,2.6-0.4
	c0.5,3.1,0.2,6.4-1.8,8.9c1.9-0.4,3.9-1.2,5.9-1.1c5.5,3.5,11.6,6.3,18.1,7.3c-3.1-2-6.2-4.2-6.9-8.1c3,1.6,5.7,3.7,8.6,5.4
	c1.8,0.6,3.8,0.2,5.5,1.3c1.7,1.3,3,3.1,4.4,4.6c-0.1-0.7-0.3-1.4-0.4-2c12,5.2,22.7,13.4,32,22.5c-0.5-1.7-1.2-3.4-1.8-5
	c1.8,1.8,3.4,3.7,5.1,5.6c-1.4-4.2-3.2-8.3-3.2-12.8c1.2,1,2.4,2.1,3.1,3.5c3.4,6.4,6.1,13.2,7.9,20.3c1.3,6,1.8,12.1,3.5,18.1
	c0-1.8-0.1-5.3-0.2-7c7.7,3.1,7.5,14.2,15.6,17.1c-0.4-4,0-8.3-1.5-12.1c-3.4-5-8.2-8.9-12.8-12.8c-0.2,1.9-0.3,3.8-0.5,5.7
	c-1.5-11.1-5.8-21.4-10.5-31.4c-2.6-5.1-7.5-8.3-11.5-12.1c1.5,4.6,2.8,9.4,3.7,14.2c-3.6-5.9-4.1-13.1-7.4-19
	c-2.3-2.4-5.4-4.1-7.5-6.8c-0.1,4-0.2,8-0.4,12c-1.1-4.5-2.2-9-2.7-13.7c1,2.5,1.7,5.1,2.4,7.6c0-2.4,0-4.8,0-7.2
	c-2.9-1.9-5.5-4.2-8.4-6.2c0.5,4.6,1,9.2,0.9,13.8c-3.8-4.6-4.9-10.8-8.9-15.3c-0.2,0.5-0.6,1.6-0.9,2.1c-1.6-2.2-3-4.5-5-6.3
	c-4.5-1.9-8.9-4-13.5-5.5c0,2-0.1,4-0.2,6C594.3,69.2,583.5,69.2,576.6,72.1 M571.3,68.1c6.9-1.3,14-0.7,21-0.8
	c11.8,0.6,22.7,6,33.3,10.7c3.9,2.8,7.3,6.1,11,9.1c6.2,4.7,9.9,11.9,16.1,16.7c4,3.2,6.6,7.8,8.3,12.6c2.3,6.3,5.8,12.1,8.8,18.1
	c3.2,6.5,9.9,10.3,14,16.2c3.5,10.7,2.6,22.2,1.6,33.2c-0.2,1.5,0.6,3.1,2.1,3.6c6.5,2,13.5,2.4,20,4.6c7.1,3.4,3.9,12.2,5.7,18.4
	c2.7,10.4,1.7,21.3,0.9,31.9c0.1,3.1-0.9,6.9,1.3,9.6c8,4.9,16.9,9,23,16.4c1.7,2.2,4.6,2.8,6.5,4.7c2.2,5,0.1,11.4,3.8,15.8
	c9.3,9,18.9,18.2,25.8,29.2c2.1,3.5,1.7,8.2,4.5,11.3c2.2,3,5.5,5.6,6.2,9.5c1.4,5.3,4.2,10.2,4.4,15.8c1.2,12.3,3.1,24.6,8.3,35.9
	c-0.7-0.4-1.4-0.7-2.1-1.1c1.8,9.3,1.5,18.9,0,28.2c3.5,1.4,7.4,1.5,11,2.6c4.1,2.2,6.8,6.4,11,8.5c3.6,1.8,7.6,3.1,9.9,6.6
	c6.1,7.7,13.4,14.9,17.2,24.1c1.1,7.5,1.5,15.7-1.6,22.8c-2.8,6.2-3.1,13.3-6.2,19.4c-6,9.4-14.5,16.7-23.8,22.7
	c-4.8,3.2-9,7.2-12.8,11.5c-4.7,5.1-12.4,4-18,7.6c-8.2,4.8-14.5,12.8-23.8,15.6c11.7,6.2,24.1,11,35.6,17.6
	c17.3,9.8,33.2,21.7,48.9,33.8c13.9,11.6,27.8,23.4,38.9,37.7c2.9,3.4,4.5,7.5,6.4,11.5c-6.2-5.2-11.7-11.2-17.1-17.2
	c-6.6-7.2-15-12.1-22.8-17.9c-9.5-7-19.8-12.7-30.1-18.3c-3.7-1.9-7.4-4.1-11.5-5.1c-0.7,0.7-1.3,1.5-1.9,2.3
	c-10.1-1.4-19.5-5.9-29.8-6.4c2.4,4.9,5.2,10.3,4,16c-1.2,6.9-7,11.8-13.2,14.5c-8.4,3.3-17.3,5.6-26.3,6.1
	c-8.3-0.6-16-4.3-23.9-6.5c2.4-3.3,4-7.2,6.9-10.1c-0.9,3.3-2.3,6.4-3.4,9.6c2.8,0.9,5.6,1.7,8.3,2.6c1.1-4.1,2.3-8.6,5.7-11.4
	c-1.1,4.2-3.2,8.1-4.9,12.2c2.7,0.4,5.4,1,8.1,1.4c-1.8-0.8-3.7-1.6-5.6-2.3c0.7-3.2,1.5-6.6,4.1-8.9c0,1.9,0.2,4.1,0.3,6.1
	c0.3,0.1,1,0.4,1.3,0.5c-0.2-3.8,0.8-7.8,3.8-10.4c7.6-6.7,17.4-10.3,27.1-12.9c-3.8-2.9-7.8-5.6-12.5-6.5
	c-5.3,5.2-10.1,12-17.8,13.6c-8.9,1.8-16.7-3.1-24.7-5.8c-5.2-2.1-10.8-2.8-16.3-3.4c-2.2,2.7-4,6.1-7.3,7.4
	c-5.5,2.5-11.4,3.7-16.9,6.1c2.4,1.6,5.8,2.5,7.2,5.4c-0.2,2.5-3.2,3-5.1,3.7c-10.9,2.1-22.2,1.7-32.9,4.5
	c-15.5,4.4-31.8,0.7-47.6,2.9c-12,1.6-23.9,3.8-36,3.8c-12.3-1.2-21.5-11.8-34.1-11.7c-5.9-0.7-11.4,2.2-17.1,3
	c-5.4,0.1-10.3-2.7-15-5c-9.7-4.9-20.5-7.2-30.8-10.4c-5.1-1.6-10.7-3.6-16-1.8c-5.4,1.8-11.6,2.5-16.8-0.3
	c-6.7-2.7-9.9-10-16.2-13.2c-6.8-0.8-13.7,0.7-20.4,1.5c-8.8,1.1-17,4.5-25.7,6.3c-1.7,0.4-2.5-1.5-3.7-2.4
	c-17.2,7.9-33.6,17.5-48.7,28.8c-12.3,8.1-21.3,19.9-32.2,29.5c4.2-10.9,12.7-19.1,20.8-27.1c10-10.2,20.9-19.4,32.4-27.9
	c13.8-10.4,27.8-20.8,43.2-28.9c11-5.7,22.1-11.2,33.5-16.1c-6-2.8-11.8-6.1-16.6-10.7c-5.1-4.9-11.9-7.3-18.6-9
	c-7.2-2-10.8-9.3-16.8-13.3c-9-5.8-17.2-12.8-24.1-21.1c-4-4.7-5.1-10.9-6.3-16.7c-1.1-4.8-4.2-9-4.1-14.1
	c0.1-6.3-1.8-13.3,1.9-18.9c4.8-7.9,10.8-14.9,16.9-21.8c2.1-2.8,5.6-3.8,8.5-5.4c3.7-1.8,6-5.3,9.2-7.6c3.8-2,8.9-0.5,12.2-3.6
	c-0.4-9.5-2.4-19.3,0.9-28.6c-0.9,0.7-1.7,1.4-2.6,2.1c1.3-3.8,3.3-7.4,4.5-11.3c1.3-5.6,1.8-11.3,2.8-16.9
	c0.9-4.7,0.4-9.7,2.2-14.2c2.3-5.7,2.9-12.3,7.5-16.7c4.4-3.8,4-10.1,6.9-14.8c7.2-10.3,16.1-19.2,25-28c4.4-4.3,1.2-11.2,4.1-16.2
	c2.2-2.3,5.2-3.4,7.3-5.8c5.7-5.9,13.1-10,20.3-13.9c2.1-1.1,3.2-3.5,3.4-5.8c0.1-10.8-2.7-21.6-0.4-32.3c1.3-6.3,1.1-12.8,2.7-19
	c1.6-4.7,7.3-4.8,11.2-5.8c4.7-1.3,9.9-1.3,14.3-3.5c0.4-11.2-1.9-22.9,1.4-33.9c2.5-7,10-10.2,13.6-16.5c3-5,5.4-10.3,8.1-15.5
	c2.6-5.7,4.4-12,9.2-16.4c7.4-5.7,12.2-14,19.7-19.6c3.6-2.5,6.3-6.4,10.6-7.8C554.4,73.4,562.5,69.5,571.3,68.1"/>
</svg>
